<svg xmlns="http://www.w3.org/2000/svg" width="353.293" height="244.679" viewBox="0 0 353.293 244.679">
  <g id="Group_113" data-name="Group 113" transform="translate(0 0)">
    <path id="Path_463" data-name="Path 463" d="M711.244,483.971c0,22.143-13.164,29.875-29.4,29.875s-29.4-7.732-29.4-29.875,29.4-50.312,29.4-50.312S711.244,461.828,711.244,483.971Z" transform="translate(-458.639 -316.665)" fill="#2da4e9"/>
    <path id="Path_464" data-name="Path 464" d="M655.066,415.928,667.6,393l-12.485,20.019.135-8.332,8.637-16.587-8.6,14.382.243-14.987,9.249-13.205-9.21,10.849.152-27.48-.915,34.821-9.365-14.336,9.252,17.274-.876,16.737-.026-.444-10.84-15.146,10.807,16.716-.11,2.093-.02.032.009.172-2.223,22.335h2.97l.357-1.8,10.781-16.675L654.765,434.46Z" transform="translate(-432.633 -240.666)" fill="#3f3d56"/>
    <path id="Path_465" data-name="Path 465" d="M908.948,172.108c0,42.3-25.146,57.068-56.165,57.068s-56.165-14.769-56.165-57.068S852.785,76,852.785,76,908.948,129.81,908.948,172.108Z" transform="translate(-555.655 -75.999)" fill="#f2f2f2"/>
    <path id="Path_466" data-name="Path 466" d="M855.658,146.707l.575-35.4,23.939-43.8-23.849,38.242.259-15.917,16.5-31.685L856.65,85.624h0L857.115,57,874.782,31.77,857.188,52.494,857.479,0l-1.826,69.493.15-2.867L837.84,39.132l17.674,33L853.841,104.1l-.05-.849L833.084,74.319l20.645,31.932-.209,4-.038.06.017.328-4.246,81.117h5.673l.681-41.9L876.2,118Z" transform="translate(-560.574 0)" fill="#3f3d56"/>
    <path id="Path_467" data-name="Path 467" d="M410.966,635.256c0,12.625-81.9,60.006-177.638,60.006S59.976,670.741,59.976,658.116s75.707,2.381,171.447,2.381S410.966,622.631,410.966,635.256Z" transform="translate(-59.976 -450.583)" fill="#3f3d56"/>
    <path id="Path_468" data-name="Path 468" d="M410.966,635.256c0,12.625-81.9,60.006-177.638,60.006S59.976,670.741,59.976,658.116s75.707,2.381,171.447,2.381S410.966,622.631,410.966,635.256Z" transform="translate(-59.976 -450.583)" opacity="0.1"/>
    <path id="Path_469" data-name="Path 469" d="M410.966,632.909c0,12.625-81.9,45.719-177.638,45.719S59.976,668.394,59.976,655.769s75.707-11.906,171.446-11.906S410.966,620.285,410.966,632.909Z" transform="translate(-59.976 -448.237)" fill="#3f3d56"/>
    <ellipse id="Ellipse_123" data-name="Ellipse 123" cx="73.614" cy="5.694" rx="73.614" ry="5.694" transform="translate(101.677 204.237)" opacity="0.1"/>
    <path id="Path_470" data-name="Path 470" d="M414.7,368.965s21.551.4,17.56,4.19-18.957,0-18.957,0Z" transform="translate(-297.727 -273.133)" fill="#a0616a"/>
    <path id="Path_471" data-name="Path 471" d="M269.649,227.881s8.7-1.554,11.727,5.47,9.239,27.057,9.239,27.057,16.628,11.007,19.652,10.645,8.195.376,7.246,3.676-.527,7.041-2.711,7.5-5.656-3.919-8.314-1.81-26.342-5.592-27.863-7.188-14.157-36.146-14.157-36.146S264.975,227.769,269.649,227.881Z" transform="translate(-197.577 -178.101)" fill="#2da4e9"/>
    <path id="Path_472" data-name="Path 472" d="M252.339,605.607l1,8.381-8.381,2.2-4.789-2.2V606.6Z" transform="translate(-161.606 -407.507)" fill="#a0616a"/>
    <path id="Path_473" data-name="Path 473" d="M183.405,622.078l1,8.381-8.381,2.2-4.789-2.2v-7.383Z" transform="translate(-115.221 -418.59)" fill="#a0616a"/>
    <path id="Path_474" data-name="Path 474" d="M266.455,397.086l3.791,13.769,5.587,27.937a27.512,27.512,0,0,1-1.6,14.966c-3.193,8.181-8.98,34.921-7.782,36.517s-13.569,2.794-13.37,1.2,2.2-23.547,2.2-23.547,2.794-19.356,4.19-21.751-6.385-8.381-6.385-8.381-2,22.948-4.989,24.943-2.594,32.925-3.991,33.324-11.574,2-12.771,0,0-35.32,0-35.32,6.785-25.343,5.388-28.934-.6-18.957-.6-18.957-5.188-11.773-2.395-17.959Z" transform="translate(-174.923 -290.578)" fill="#2f2e41"/>
    <path id="Path_475" data-name="Path 475" d="M294.454,147.2s-8.381,10.376-7.982,14.966-13.17-8.381-13.17-8.381,9.778-13.17,9.778-15.964S294.454,147.2,294.454,147.2Z" transform="translate(-203.52 -117.318)" fill="#a0616a"/>
    <circle id="Ellipse_124" data-name="Ellipse 124" cx="13.17" cy="13.17" r="13.17" transform="translate(77.663 7.432)" fill="#a0616a"/>
    <path id="Path_476" data-name="Path 476" d="M233.516,244.309a24.187,24.187,0,0,0-1.231,6.866c.068,1.375,3.718,2.277,8.764,2.868,4.679.549,10.56.828,15.906.972,5.613.152,10.632.152,13.044.152,7.184,0,1.4-4.59-1.4-6.785s-2.2-33.324-2-37.315-1.8-15.565-1.8-17.76-4.7-7.924-4.7-7.924-1.092,3.135-5.482-1.056a23.331,23.331,0,0,0-10.177-5.388c-4.39,1.6-11.773,19.157-12.172,22.15-.162,1.215-.028,7.439.243,14.545.393,10.386,1.08,22.665,1.552,23.968C234.454,240.63,234.041,242.354,233.516,244.309Z" transform="translate(-175.874 -145.267)" fill="#2da4e9"/>
    <path id="Path_477" data-name="Path 477" d="M229.483,338.413l1.4,4.989-5.388,5.587-1.8-7.783Z" transform="translate(-150.523 -227.715)" fill="#a0616a"/>
    <path id="Path_478" data-name="Path 478" d="M297.258,693.128s4.191,4.789,7.383,1.6,2.993-5.188,3.592-5.188,9.578,7.982,9.578,7.982,15.365,3.592,6.984,6.186-32.127.8-32.127,0-.6-11.374,1.6-11.374Z" transform="translate(-216.502 -488.842)" fill="#2f2e41"/>
    <path id="Path_479" data-name="Path 479" d="M228.324,709.6s4.191,4.789,7.383,1.6,2.993-5.188,3.592-5.188,9.578,7.982,9.578,7.982,15.365,3.592,6.984,6.186-32.127.8-32.127,0-.6-11.374,1.6-11.374Z" transform="translate(-170.117 -499.925)" fill="#2f2e41"/>
    <path id="Path_480" data-name="Path 480" d="M281.824,109.128c-.425.275-.979.553-1.405.279a63.675,63.675,0,0,1-3.534-12.235c-.269-1.47-.456-3.105.361-4.357a10.686,10.686,0,0,0,1.022-1.438,9.732,9.732,0,0,0,.241-2.65c.249-1.854,2-3.147,3.763-3.774s3.676-.822,5.356-1.644a40.714,40.714,0,0,0,4.351-3.06c1.479-.983,3.373-1.656,5.021-.991,1.457.588,2.365,2.073,3.742,2.829a10.916,10.916,0,0,0,3.062.876,19.6,19.6,0,0,1,7.962,3.7,5.781,5.781,0,0,1,1.449,1.494c1.767,2.91-1.4,6.866,0,9.971L310.2,95.745a10.51,10.51,0,0,0-2.7-1.713,3.552,3.552,0,0,0-3.092.14c-1.274.792-1.62,2.445-2.065,3.878s-1.43,3.021-2.93,2.985c-2.04-.05-2.753-2.9-4.583-3.8a3.533,3.533,0,0,0-3.713.656,7.612,7.612,0,0,0-2.075,3.352A9.144,9.144,0,0,1,288,103.589c-.548.748-1.249.808-1.834,1.367C284.646,106.41,283.709,107.91,281.824,109.128Z" transform="translate(-205.778 -78.013)" fill="#2f2e41"/>
    <path id="Path_481" data-name="Path 481" d="M234.161,271.1a92.992,92.992,0,0,0,7.533,9.734c4.679.549,10.56.828,15.906.972a12.6,12.6,0,0,0-3.518-3.241c-2.594-1.6-8.78-20.553-8.78-20.553s7.583-19.556,9.578-26.939-5.787-11.574-5.787-11.574c-3.592-2.993-9.778,3.991-9.778,3.991s-3.157,9.522-6.142,18.935c.393,10.386,1.08,22.665,1.552,23.968C235.1,267.419,234.686,269.143,234.161,271.1Z" transform="translate(-176.519 -172.056)" opacity="0.1"/>
    <path id="Path_482" data-name="Path 482" d="M236.494,214.618s7.782,4.191,5.787,11.574-9.578,26.939-9.578,26.939,6.186,18.957,8.78,20.553,6.186,5.388,3.392,7.383-4.789,5.188-6.785,4.191-2-6.585-5.388-6.585-17.161-20.753-17.361-22.948,11.374-37.116,11.374-37.116S232.9,211.624,236.494,214.618Z" transform="translate(-164.519 -168.772)" fill="#2da4e9"/>
    <path id="Path_483" data-name="Path 483" d="M541.511,374.066l-2.245-2.245a6.982,6.982,0,0,0-9.874,0l-43.543,43.543-43.543-43.543a6.982,6.982,0,0,0-9.874,0l-2.245,2.245a6.982,6.982,0,0,0,0,9.874l43.543,43.543-43.543,43.543a6.982,6.982,0,0,0,0,9.874l2.245,2.245a6.982,6.982,0,0,0,9.874,0L485.849,439.6l43.544,43.543a6.982,6.982,0,0,0,9.874,0l2.245-2.245a6.982,6.982,0,0,0,0-9.874l-43.544-43.543,43.543-43.543A6.982,6.982,0,0,0,541.511,374.066Z" transform="translate(-307.71 -273.679)" fill="#ff6584"/>
    <path id="Path_484" data-name="Path 484" d="M429.643,598.8l42.25-42.25-.407-.407-40.29,40.29A6.955,6.955,0,0,0,429.643,598.8Z" transform="translate(-308.721 -399.08)" opacity="0.1"/>
    <path id="Path_485" data-name="Path 485" d="M430.595,375.482a6.982,6.982,0,0,1,9.874,0l43.543,43.543,43.543-43.543a6.982,6.982,0,0,1,9.874,0l2.245,2.245a6.982,6.982,0,0,1,1.554,7.507l1.293-1.293a6.982,6.982,0,0,0,0-9.874l-2.245-2.245a6.982,6.982,0,0,0-9.874,0l-43.543,43.543-43.543-43.543a6.982,6.982,0,0,0-9.874,0l-2.245,2.245a6.955,6.955,0,0,0-1.554,2.367Z" transform="translate(-308.721 -273.679)" opacity="0.1"/>
    <path id="Path_486" data-name="Path 486" d="M636.157,547.436,632.9,550.69l43.543,43.543A6.982,6.982,0,0,1,678,601.74l1.293-1.293a6.982,6.982,0,0,0,0-9.874Z" transform="translate(-445.493 -393.224)" opacity="0.1"/>
    <path id="Path_487" data-name="Path 487" d="M114.511,550.233c0,18.391-10.933,24.812-24.419,24.812s-24.419-6.421-24.419-24.812,24.419-41.786,24.419-41.786S114.511,531.843,114.511,550.233Z" transform="translate(-63.809 -366.989)" fill="#2da4e9"/>
    <path id="Path_488" data-name="Path 488" d="M57.69,480.842,68.1,461.8,57.729,478.428l.113-6.921,7.173-13.776-7.143,11.945.2-12.447,7.681-10.968L58.1,455.271l.126-22.823-.76,28.92-7.778-11.906,7.684,14.346-.728,13.9-.022-.369-9-12.58L56.6,478.644l-.091,1.739-.016.026.008.143L54.655,499.1h2.467l.3-1.5,8.954-13.849-8.931,12.48Z" transform="translate(-32.046 -290.99)" fill="#3f3d56"/>
  </g>
</svg>
