<svg xmlns="http://www.w3.org/2000/svg" xmlns:xlink="http://www.w3.org/1999/xlink" width="263.378" height="244.181" viewBox="0 0 263.378 244.181">
  <defs>
    <linearGradient id="linear-gradient" x1="0.5" y1="1" x2="0.5" gradientUnits="objectBoundingBox">
      <stop offset="0" stop-color="gray" stop-opacity="0.251"/>
      <stop offset="0.54" stop-color="gray" stop-opacity="0.122"/>
      <stop offset="1" stop-color="gray" stop-opacity="0.102"/>
    </linearGradient>
    <linearGradient id="linear-gradient-2" x1="0.507" y1="1.003" x2="0.507" y2="0" xlink:href="#linear-gradient"/>
  </defs>
  <g id="Group_124" data-name="Group 124" transform="translate(0.003 -0.18)">
    <ellipse id="Ellipse_127" data-name="Ellipse 127" cx="63.625" cy="4.866" rx="63.625" ry="4.866" transform="translate(77.904 234.629)" fill="#2da4e9"/>
    <ellipse id="Ellipse_128" data-name="Ellipse 128" cx="63.625" cy="4.866" rx="63.625" ry="4.866" transform="translate(77.904 234.629)" opacity="0.4"/>
    <path id="Path_490" data-name="Path 490" d="M223.664,85.63c8.92-7.962,22.953-9.585,35.723-8.943C299.489,78.678,335.693,98.04,367,119.94c11.334,7.93,22.5,16.473,29.856,27.39,14.98,22.225,10.534,53.016-10.3,71.325-7.087,6.23-15.676,11.006-24.5,15.25-15.682,7.527-32.6,13.57-50.4,15.288-12.692,1.229-25.543.23-38.16-1.482-35.248-4.8-69.852-15.357-98.857-33.461-12.721-7.933-24.711-17.794-29.954-30.63s-1.888-29.1,11.1-36.693c5.372-3.142,11.8-4.561,18.085-5.893,9.257-1.962,18.663-3.9,27.016-7.881,8.632-4.12,18.841-12.085,17.135-21.2C216.2,102.175,214.744,93.583,223.664,85.63Z" transform="translate(-142.33 -61.771)" fill="#2da4e9"/>
    <path id="Path_491" data-name="Path 491" d="M223.664,85.63c8.92-7.962,22.953-9.585,35.723-8.943C299.489,78.678,335.693,98.04,367,119.94c11.334,7.93,22.5,16.473,29.856,27.39,14.98,22.225,10.534,53.016-10.3,71.325-7.087,6.23-15.676,11.006-24.5,15.25-15.682,7.527-32.6,13.57-50.4,15.288-12.692,1.229-25.543.23-38.16-1.482-35.248-4.8-69.852-15.357-98.857-33.461-12.721-7.933-24.711-17.794-29.954-30.63s-1.888-29.1,11.1-36.693c5.372-3.142,11.8-4.561,18.085-5.893,9.257-1.962,18.663-3.9,27.016-7.881,8.632-4.12,18.841-12.085,17.135-21.2C216.2,102.175,214.744,93.583,223.664,85.63Z" transform="translate(-142.33 -61.771)" opacity="0.4"/>
    <path id="Path_492" data-name="Path 492" d="M556.686,46.729v.515a3.327,3.327,0,0,1-.02.443v.092c0,.124-.015.247-.026.368v.106a.377.377,0,0,1,0,.058,3.331,3.331,0,0,1-.029.337c-.011.112-.02.178-.029.27-.026.222-.055.443-.089.665-.02.147-.043.288-.066.437a.125.125,0,0,0,0,.032c-.015.072-.026.144-.04.219s-.014.083-.023.127a.315.315,0,0,1-.023.115,1.47,1.47,0,0,0-.046.23c-.017.075-.032.153-.049.23s-.023.112-.037.17-.043.193-.066.288a.038.038,0,0,0,0,.017l-.052.2-.06.242c-.026.1-.055.2-.08.288a.1.1,0,0,1-.023.078l-.086.288c-.092.305-.193.61-.288.912l-.1.288-.06.158a20.43,20.43,0,0,1-2.806,5.041c-.069.1-.144.193-.216.288a21.469,21.469,0,0,1-1.77,2.014L521.175,90.667,491.757,61.243a20.84,20.84,0,0,1-2.3-2.739,20.14,20.14,0,0,1-1.2-1.911,20.818,20.818,0,0,1-2.515-11.829c.032-.377.075-.754.127-1.128.092-.662.219-1.321.374-1.974.032-.132.066-.265.1-.394.017-.066.035-.135.052-.2s.02-.081.032-.121l.086-.288h0c.069-.227.138-.455.213-.682l.106-.311c.155-.44.322-.863.506-1.306l.112-.256c.058-.129.115-.259.176-.388.1-.207.2-.414.288-.619l.026-.046h0c.046-.095.095-.184.144-.288l.17-.314c.072-.129.147-.259.221-.388.035-.06.072-.121.107-.184s.043-.066.063-.1a.123.123,0,0,0,0-.02h0c.046-.075.092-.15.141-.224s.106-.17.161-.253c.121-.187.245-.374.371-.558l.135-.193.17-.233c.058-.083.118-.164.181-.245l.219-.288c.069-.083.135-.17.2-.253l.072-.086.147-.178c.075-.092.152-.181.23-.27l.1-.118.017-.02.176-.2.2-.216c.184-.2.374-.4.575-.575l.227-.224.354-.334c.078-.072.155-.144.236-.213s.184-.167.288-.247l.184-.155c.06-.055.124-.106.184-.155a4.649,4.649,0,0,1,.374-.288l.19-.15c.317-.242.636-.475.964-.7l.2-.132.2-.129.187-.121.288-.173.138-.083.2-.118c.27-.158.541-.311.814-.455l.164-.086.253-.129.21-.1.21-.1.21-.1.213-.095.213-.092c.288-.124.575-.239.863-.348l.187-.115.23-.083.2-.072.173-.058.4-.127.2-.063.164-.046.161-.046q.144-.043.288-.078l.38-.1c.391-.095.786-.181,1.18-.253l.161-.029.224-.037.23-.037.288-.043.17-.023c.38-.049.76-.089,1.151-.118h2.673a1.658,1.658,0,0,1,.288.017h.2c.3.023.61.055.912.089l.409.055.288.04.227.037.227.037.15.026q.59.109,1.174.25l.478.124.132.037.2.058c.132.037.265.075.394.118l.173.055q.432.132.863.288l.2.072.256.1.386.155c.15.063.288.127.44.193l.173.075.236.112.21.1.207.1.262.132.207.109c.161.086.322.173.481.265l.2.115c.236.135.466.288.7.423l.187.121.2.129.2.132h0l.129.089c.288.193.55.394.82.6l.19.15c.124.1.25.2.374.288.06.049.124.1.184.155l.184.155.288.247c.081.069.158.141.236.213l.331.351.227.224.23-.224.351-.334c.078-.072.155-.144.236-.213s.184-.167.288-.247l.184-.155c.06-.055.124-.106.184-.155a4.649,4.649,0,0,1,.374-.288l.19-.15c.316-.242.636-.475.964-.7l.2-.132.2-.129.187-.121.273-.173.138-.083.2-.118c.271-.158.541-.311.814-.455l.164-.086.253-.129.21-.1.21-.1.21-.1.213-.095.213-.092c.288-.124.576-.239.863-.348.069-.026.141-.055.213-.078l.227-.083.207-.072.17-.058.4-.127.2-.063.164-.046.161-.046c.095-.029.19-.055.288-.078l.377-.1c.391-.095.786-.181,1.18-.253l.161-.029.224-.037.23-.037.288-.043.17-.023c.38-.049.76-.089,1.151-.118h2.647a1.659,1.659,0,0,1,.288.017h.2c.305.023.61.055.912.089l.409.055.288.04.227.037.227.037.15.026q.59.109,1.174.25l.478.124.133.037.2.058c.132.037.265.075.4.118l.17.055c.288.089.576.187.863.288l.193.072.256.1.386.155c.15.063.288.127.44.193l.173.075.236.112.21.1.207.1.262.132.21.109c.158.086.319.173.478.265l.2.115c.236.135.469.288.7.423l.187.121.2.129.2.132h.014l.13.089c.288.193.55.394.82.6l.19.15c.124.1.25.2.374.288.06.049.124.1.184.155l.184.155.239.213c.081.072.161.144.239.219l.135.124h0a.132.132,0,0,1,.02.02c.078.069.152.144.23.216l.1.1c.04.043.081.083.124.124l.227.233c.115.118.23.239.343.363.066.069.132.141.2.213.109.121.216.242.322.365l.339.406c.388.478.751.967,1.093,1.467l.138.21c.052.075.1.15.147.224l.124.193c.069.112.138.222.2.334l.181.311c.037.063.075.127.109.19l.083.15.083.15.121.227.118.227q.406.794.737,1.62l.095.233c.089.227.173.452.253.682l.072.207c.032.1.066.2.095.288s.058.176.084.265l.052.167c.026.081.049.161.072.242s.055.2.083.288c.043.161.083.322.124.486l.06.253c.029.121.055.242.081.363a.747.747,0,0,0,.031.155c.011.052.029.138.04.207s.023.109.031.164l.026.138a.258.258,0,0,0,.023.129c.023.043,0,.083.02.127l.043.259a1.6,1.6,0,0,0,.037.259c.014.086.026.193.037.288s.023.184.031.288l.017.158c0,.095.02.19.029.288v.141c0,.1.017.2.023.288a.043.043,0,0,1,0,.02v.371a2.226,2.226,0,0,0,.015.311h0V46.1A3.705,3.705,0,0,1,556.686,46.729Z" transform="translate(-386.877 -25.61)" fill="#ff6584"/>
    <path id="Path_493" data-name="Path 493" d="M558.1,46.729v.515a3.327,3.327,0,0,1-.02.443v.092c0,.124-.015.247-.026.368v.106a.377.377,0,0,1,0,.058,3.331,3.331,0,0,1-.029.337c-.011.112-.02.178-.029.27-.026.222-.055.443-.089.665-.02.147-.043.288-.066.437a.125.125,0,0,0,0,.032c-.015.072-.026.144-.04.219s-.014.083-.023.127a.318.318,0,0,1-.023.115,1.483,1.483,0,0,0-.046.23c-.017.075-.032.153-.049.23s-.023.112-.037.17-.043.193-.066.288a.038.038,0,0,0,0,.017l-.052.2-.06.242c-.026.1-.055.2-.08.288a.1.1,0,0,1-.023.078l-.086.288c-.092.305-.193.61-.288.912l-.1.288-.06.158a20.818,20.818,0,0,0-9.075-22.444q-.561-.357-1.134-.673a20.8,20.8,0,0,0-24.775,3.556,20.857,20.857,0,0,0-2.541-2.158h0a20.5,20.5,0,0,0-2.152-1.364,20.847,20.847,0,0,0-20.033,0,20.569,20.569,0,0,0-2.955,1.974,21.249,21.249,0,0,0-5.179,6.063.105.105,0,0,1,0,.026,19.738,19.738,0,0,0-.889,1.781c-.15.334-.288.673-.417,1.013.032-.132.066-.265.1-.394.017-.066.035-.135.052-.2s.02-.081.032-.121l.086-.288h0c.069-.227.138-.455.213-.682l.106-.311c.155-.44.322-.863.506-1.306l.112-.256c.058-.129.115-.259.175-.388.1-.207.2-.414.288-.619l.026-.046h0c.046-.095.095-.184.144-.288l.17-.314c.072-.129.147-.259.222-.388.035-.06.072-.121.106-.184s.043-.066.063-.1a.123.123,0,0,0,0-.02h0c.046-.075.092-.15.141-.224s.106-.17.161-.253c.121-.187.245-.374.371-.558l.135-.193.17-.233c.058-.083.118-.164.181-.245l.219-.288c.069-.083.135-.17.2-.253l.072-.086.147-.178c.075-.092.152-.181.23-.27l.1-.118.017-.02.176-.2.2-.216c.184-.2.374-.4.575-.575l.227-.224.354-.334c.078-.072.155-.144.236-.213s.184-.167.288-.247l.184-.155c.06-.055.124-.106.184-.155a4.652,4.652,0,0,1,.374-.288l.19-.15c.317-.242.636-.475.964-.7l.2-.132.2-.129.187-.121.288-.173.138-.083.2-.118c.27-.158.541-.311.814-.455l.164-.086.253-.129.21-.1.21-.1.21-.1.213-.095.213-.092c.288-.124.576-.239.863-.348L500.7,27l.23-.083.2-.072.173-.058.4-.127.2-.063.164-.046.161-.046q.144-.043.288-.078l.38-.1c.391-.095.786-.181,1.18-.253l.161-.029.224-.037.23-.037.288-.043.17-.023c.38-.049.76-.089,1.151-.118h2.673a1.659,1.659,0,0,1,.288.017h.2c.3.023.61.055.912.089l.409.055.288.04.227.037.227.037.15.026q.59.109,1.174.25l.478.124.132.037.2.058c.132.037.265.075.394.118l.173.055q.432.132.863.288l.2.072.256.1.386.155c.15.063.288.127.44.193l.173.075.236.112.21.1.207.1.262.132.207.109c.161.086.322.173.481.265l.2.115c.236.135.466.288.7.423l.187.121.2.129.2.132h0l.13.089c.288.193.55.394.82.6l.19.15c.124.1.25.2.374.288.06.049.124.1.184.155l.184.155.288.247c.081.069.158.141.236.213l.331.351.227.224.23-.224.351-.334c.078-.072.155-.144.236-.213s.184-.167.288-.247l.184-.155c.06-.055.124-.106.184-.155a4.628,4.628,0,0,1,.374-.288l.19-.15c.316-.242.636-.475.964-.7l.2-.132.2-.129.187-.121.273-.173.138-.083.2-.118c.271-.158.541-.311.814-.455l.164-.086.253-.129.21-.1.21-.1.21-.1.213-.095.213-.092c.288-.124.575-.239.863-.348.069-.026.141-.055.213-.078l.227-.083.207-.072.17-.058.4-.127.2-.063.164-.046.161-.046c.095-.029.19-.055.288-.078l.377-.1c.391-.095.786-.181,1.18-.253l.161-.029.224-.037.23-.037.288-.043.17-.023c.38-.049.76-.089,1.151-.118h2.647a1.659,1.659,0,0,1,.288.017h.2c.305.023.61.055.912.089l.409.055.288.04.227.037.227.037.15.026q.59.109,1.174.25l.478.124.132.037.2.058c.132.037.265.075.4.118l.17.055c.288.089.576.187.863.288l.193.072.256.1.386.155c.15.063.288.127.44.193l.173.075.236.112.21.1.207.1.262.132.21.109c.158.086.319.173.478.265l.2.115c.236.135.469.288.7.423l.187.121.2.129.2.132h.015l.13.089c.288.193.55.394.82.6l.19.15c.124.1.25.2.374.288.06.049.124.1.184.155l.184.155.239.213c.081.072.161.144.239.219l.135.124h0a.127.127,0,0,1,.02.02c.078.069.152.144.23.216l.1.1c.04.043.081.083.124.124l.227.233c.115.118.23.239.343.363.066.069.132.141.2.213.109.121.216.242.322.365l.339.406c.388.478.751.967,1.093,1.467l.138.21c.052.075.1.15.147.224l.124.193c.069.112.138.222.2.334l.181.311c.037.063.075.127.109.19l.083.15.083.15.121.227.118.227q.406.794.737,1.62l.095.233c.089.227.173.452.253.682l.072.207c.032.1.066.2.095.288s.058.176.084.265l.052.167c.026.081.049.161.072.242s.055.2.083.288c.043.161.083.322.124.486l.06.253c.029.121.055.242.081.363a.747.747,0,0,0,.031.155c.011.052.029.138.04.207s.023.109.031.164l.026.138a.258.258,0,0,0,.023.129c.023.043,0,.083.02.127l.043.259a1.6,1.6,0,0,0,.037.259c.014.086.026.193.037.288s.023.184.032.288l.017.158c0,.095.02.19.029.288v.141c0,.1.017.2.023.288a.043.043,0,0,1,0,.02v.371a2.245,2.245,0,0,0,.014.311h0V46.1A3.693,3.693,0,0,1,558.1,46.729Z" transform="translate(-388.289 -25.61)" opacity="0.1"/>
    <path id="Path_494" data-name="Path 494" d="M846.15,305.755v.457a.038.038,0,0,1,0,.017v.184l-.026.2a1.053,1.053,0,0,1-.02.132h0v.107a.148.148,0,0,1,0,.034v.072a.578.578,0,0,1-.014.069v.052a.163.163,0,0,1-.02.089h0l-.017.06-.017.072-.026.089v.026a.6.6,0,0,1-.029.089c-.026.095-.057.187-.089.288a.329.329,0,0,1-.032.089.341.341,0,0,1-.02.049,6.2,6.2,0,0,1-.84,1.534l-.066.089a6.319,6.319,0,0,1-.541.613l-9.078,8.989-8.98-8.98a6.412,6.412,0,0,1-.7-.834,6.577,6.577,0,0,1-.365-.576,6.377,6.377,0,0,1-.768-3.611,2.358,2.358,0,0,1,.04-.345c.029-.2.066-.4.115-.6a.464.464,0,0,1,.029-.121l.017-.06v-.037l.026-.089h0c.02-.069.043-.138.066-.207s.02-.063.032-.095q.069-.2.155-.4l.035-.081.052-.118c.032-.063.06-.127.095-.187v-.014h0l.046-.083.052-.1c.02-.04.043-.081.066-.121l.035-.055.017-.032h0c0-.023.026-.046.04-.069s.035-.052.049-.078.075-.115.115-.17l.04-.06.052-.072.055-.072.069-.089.06-.078.023-.026.043-.055.072-.083.029-.035h0l.055-.06c.017-.023.04-.043.06-.066s.112-.121.173-.181l.069-.066.107-.1.072-.066.086-.075.054-.046.058-.049.112-.092.06-.046c.1-.072.193-.144.288-.213l.06-.04.057-.04.058-.035.086-.055.04-.023.063-.037c.081-.049.164-.1.248-.138l.049-.026.078-.04.063-.032.066-.032.063-.029.063-.029.066-.029.262-.107.066-.023.069-.026.063-.023.052-.017.121-.037.063-.02.049-.014.049-.014.089-.023.115-.029c.118-.032.239-.058.36-.078h.328c.115-.014.23-.029.348-.037h.964l.288.029.127.017h.267c.121.02.239.046.36.075l.144.037h.04l.063.017.121.037.052.014c.089.029.176.058.262.092l.06.02.078.032.118.046.132.058.055.026.072.032.063.032.063.032.081.04.063.035.147.078.06.037c.072.04.144.083.213.129l.058.034.06.04.06.04h0l.04.029.25.181a.437.437,0,0,0,.057.046l.115.092.055.049.057.046.083.075.072.066.106.1a.8.8,0,0,1,.072.066.514.514,0,0,1,.069-.066l.106-.1.072-.066.083-.075.058-.046.055-.049.115-.092a.436.436,0,0,0,.057-.046l.288-.213.06-.04.06-.04.057-.035.083-.055.043-.023.06-.037q.124-.075.25-.138l.049-.026.078-.04L837,300l.063-.032.066-.029.063-.029.066-.029.262-.106.066-.023.069-.026.063-.023.052-.017.121-.037.063-.02.049-.014.049-.014.086-.023.115-.029q.181-.046.363-.078h.325c.118-.014.233-.029.348-.037h.964l.288.029a.3.3,0,0,1,.124.017h.271c.118.02.239.046.357.075l.147.037h.04l.063.017.121.037.052.014c.086.029.175.058.262.092l.058.02.078.032.118.046.135.058.052.026.072.032.066.032.063.032.078.04.066.034.144.078.063.037c.072.04.141.083.213.129l.057.035.058.04.06.04h0l.037.029q.129.086.25.181l.06.046.112.092.058.049.055.046.075.066.072.066.04.037h0l.069.066.031.029.037.037.069.072.106.109c.02.023.04.043.058.066l.1.112.1.124a4.781,4.781,0,0,1,.334.449l.043.063.043.069.037.057.063.1.055.092.035.06.026.046.023.046a.494.494,0,0,1,.037.066l.035.072c.083.161.158.325.227.492,0,.026.02.049.029.072l.078.207a.087.087,0,0,0,.02.066c.02.023.02.058.032.089a.661.661,0,0,1,.023.081l.017.049a.36.36,0,0,0,.02.075l.026.092c.014.049.026.1.037.147a.781.781,0,0,1,.02.078.765.765,0,0,0,.023.112.109.109,0,0,1,0,.046v.834h0v.055a.362.362,0,0,0,0,.058q0,.047,0,.095h0v.1C845.977,305.591,846.153,305.691,846.15,305.755Z" transform="translate(-628.193 -220.512)" fill="#ff6584"/>
    <path id="Path_495" data-name="Path 495" d="M846.846,305.7v.458a.037.037,0,0,1,0,.017v.184l-.026.2a1.054,1.054,0,0,1-.02.132h0v.106a.149.149,0,0,1,0,.035v.072a.577.577,0,0,1-.014.069v.052a.163.163,0,0,1-.02.089h0l-.017.06-.017.072-.026.089v.026a.6.6,0,0,1-.029.089c-.026.095-.057.187-.089.288a.329.329,0,0,1-.032.089.354.354,0,0,1-.02.049,6.186,6.186,0,0,0,.176-1.539,6.365,6.365,0,0,0-2.944-5.309c-.115-.075-.23-.141-.348-.207a6.368,6.368,0,0,0-6.112,0,6.607,6.607,0,0,0-.6.377,6.338,6.338,0,0,0-.829.7,6.436,6.436,0,0,0-.777-.662h0a6.617,6.617,0,0,0-.656-.417,6.33,6.33,0,0,0-7.018.6,6.822,6.822,0,0,0-.529.475,6.257,6.257,0,0,0-.7.826c-.127.178-.245.363-.351.55h0a5.941,5.941,0,0,0-.271.544c-.046.1-.089.207-.127.311a.458.458,0,0,1,.029-.121l.017-.06v-.037l.026-.089h0c.02-.069.043-.138.066-.207s.02-.063.032-.095q.069-.2.155-.4l.035-.081.052-.118c.031-.063.06-.127.095-.187v-.014h0l.046-.083.052-.095c.02-.04.043-.081.066-.121l.035-.055.017-.032h0c0-.023.026-.046.04-.069s.034-.052.049-.078.075-.115.115-.17l.04-.06.052-.072.055-.072.069-.089.06-.078.023-.026.043-.055.072-.083.029-.035h0l.055-.06c.017-.023.04-.043.06-.066s.112-.121.173-.181l.069-.066.106-.1.072-.066.086-.075.055-.046.058-.049.112-.092.06-.046c.1-.072.193-.144.288-.213l.06-.04.057-.04.058-.035.086-.055.04-.023.063-.037c.081-.049.164-.095.247-.138l.049-.026.078-.04.063-.032.066-.032.063-.029.063-.029.066-.029.262-.106.066-.023.069-.026.063-.023.052-.017.121-.037.063-.02.049-.014.049-.014.089-.023.115-.029c.118-.032.239-.058.36-.078h.328c.115-.014.23-.029.348-.037h.964l.288.029.127.017h.268c.121.02.239.046.36.075l.144.037h.04l.063.017.121.037.052.014c.089.029.176.058.262.092l.06.02.078.032.118.046.132.058.055.026.072.032.063.032.063.032.081.04.063.034.147.078.06.037c.072.04.144.083.213.129l.057.035.06.04.06.04h0l.04.029.25.181a.437.437,0,0,0,.058.046l.115.092.055.049.057.046.083.075.072.066.107.1a.793.793,0,0,1,.072.066.506.506,0,0,1,.069-.066l.106-.1.072-.066.083-.075.058-.046.055-.049.115-.092a.449.449,0,0,0,.057-.046l.288-.213.06-.04.06-.04.058-.034.083-.055.043-.023.06-.037q.124-.075.25-.138l.049-.026.078-.04.063-.032.063-.032.066-.029.063-.029.066-.029.262-.106.066-.023.069-.026.063-.023.052-.017.121-.037.063-.02.049-.014.049-.014.086-.023.115-.029q.181-.046.363-.078h.325c.118-.014.233-.029.348-.037h.964l.288.029a.3.3,0,0,1,.124.017h.27c.118.02.239.046.357.075l.147.037h.04l.063.017.121.037.052.014c.086.029.175.058.262.092l.058.02.078.032.118.046.135.057.052.026.072.032.066.032.063.032.078.04.066.035.144.078.063.037c.072.04.141.083.213.13l.058.034.057.04.06.04h0l.037.029q.13.086.25.181l.06.046.112.092.057.049.055.046.075.066.072.066.04.037h0l.069.066.032.029.037.037.069.072.107.109c.02.023.04.043.057.066l.1.112.1.124a4.767,4.767,0,0,1,.334.449l.043.063.043.069.037.058.063.1.055.092.034.06.026.046.023.046a.474.474,0,0,1,.037.066l.035.072c.083.161.158.325.227.492,0,.026.02.049.029.072l.078.207a.086.086,0,0,0,.02.066c.02.023.02.058.032.089a.684.684,0,0,1,.023.081l.017.049a.356.356,0,0,0,.02.075l.026.092c.015.049.026.1.037.147a.772.772,0,0,1,.02.078.779.779,0,0,0,.023.112.107.107,0,0,1,0,.046v.834h0v.055a.377.377,0,0,0,0,.058v.095h0v.1C846.777,305.511,846.849,305.634,846.846,305.7Z" transform="translate(-628.89 -220.455)" opacity="0.1"/>
    <path id="Path_496" data-name="Path 496" d="M701.762,264.266v.587q0,.04,0,.081a.548.548,0,0,1-.026.2c-.026.066,0,.089-.02.132h0a.5.5,0,0,1,0,.066.223.223,0,0,1,0,.04v.1l-.017.069a.334.334,0,0,1,0,.052.825.825,0,0,1-.02.089h0a.454.454,0,0,0,0,.06.724.724,0,0,0-.02.075l-.026.089a.066.066,0,0,1,0,.023l-.026.092c-.029.092-.057.187-.092.288a.263.263,0,0,1-.032.086l-.017.049a6.333,6.333,0,0,1-.843,1.536l-.066.086a6.311,6.311,0,0,1-.538.616l-8.98,8.978-8.98-8.978a6.379,6.379,0,0,1-.7-.837,6.189,6.189,0,0,1-.368-.576,6.332,6.332,0,0,1-.766-3.608,2.752,2.752,0,0,1,.037-.345c.029-.2.066-.4.115-.6a.423.423,0,0,1,.032-.118.4.4,0,0,1,.014-.063.163.163,0,0,1,0-.035l.026-.092h0c.02-.069.04-.138.063-.207l.035-.095c.046-.135.1-.268.152-.4l.035-.078c.017-.04.034-.081.055-.118s.06-.127.092-.19v-.014h0l.043-.086.052-.095.069-.118a.543.543,0,0,1,.032-.058l.02-.032h0l.043-.069c.014-.026.032-.052.049-.078l.112-.17.043-.058.052-.072.055-.075.066-.089a.8.8,0,0,1,.063-.075.239.239,0,0,1,.02-.029l.046-.052.069-.083.032-.037h0l.052-.06.06-.066.173-.178.069-.069.109-.1a.761.761,0,0,1,.072-.066l.083-.075.057-.049.055-.046.115-.092.058-.046c.095-.075.2-.147.288-.213l.06-.04.06-.04.058-.037.083-.052.04-.026.063-.037c.08-.046.164-.095.247-.138l.052-.026-.006-.066.063-.032.063-.029.063-.032.066-.029.063-.029.265-.106.063-.023.069-.026.063-.02.055-.017.121-.04.06-.017.052-.014.049-.014.086-.026.115-.029.36-.078h.328c.115-.014.233-.026.348-.035h.964a2.611,2.611,0,0,1,.288.026l.124.017h.268c.121.023.242.049.36.078l.147.037h.04a.5.5,0,0,1,.06.017l.121.034.055.017.259.089.06.023.078.029.118.049.135.058.052.023.072.035.063.029.063.032.081.04.063.035.147.081.063.035.21.13.057.037.06.04.06.04h0l.04.026c.086.06.17.121.25.184a.445.445,0,0,1,.058.046c.04.029.078.06.115.092l.057.046.055.049.083.075a.777.777,0,0,1,.072.066l.109.1.069.069.069-.069.106-.1.072-.066.086-.075.055-.049.057-.046c.037-.032.075-.063.115-.092a.445.445,0,0,1,.058-.046c.095-.075.193-.147.288-.213l.06-.04.06-.04.055-.037.086-.052.04-.026.063-.037c.08-.046.164-.095.247-.138l.049-.026.078-.04.066-.032.063-.029.063-.032.066-.029.063-.029.262-.106.066-.023.069-.026.063-.02.052-.017.121-.04.063-.017.049-.014.049-.014.089-.026.115-.029c.121-.029.239-.055.36-.078h.328c.115-.014.23-.026.348-.035h.964l.288.026.124.017h.268c.121.023.239.049.36.078l.147.037h.037a.407.407,0,0,1,.063.017l.121.034.052.017.262.089.06.023.078.029.118.049.135.058.052.023.072.035.063.029.063.032.08.04.063.035.147.081.06.035.213.13.058.037.06.04.06.04h0l.04.026.25.184.058.046.115.092.055.046.058.049.072.063.075.066.04.04h0l.072.066.032.032.037.037.069.069.1.112.06.066c.035.034.066.072.1.109l.1.124a5.168,5.168,0,0,1,.334.449l.043.063.043.069a.67.67,0,0,1,.037.06,1.178,1.178,0,0,1,.063.1c.02.035.037.063.055.1l.035.057.026.046.026.046.035.069c0,.023.026.046.037.069.083.161.158.328.224.495a.526.526,0,0,1,.029.072q.043.1.078.207a.187.187,0,0,0,.023.063l.029.089.026.081a.072.072,0,0,0,.014.052c.014.017,0,.049.023.072l.026.092a.714.714,0,0,0,.037.15l.017.078.026.109v.049a.421.421,0,0,1,0,.063.3.3,0,0,1,0,.049.212.212,0,0,1,0,.043v.078a.686.686,0,0,1,0,.078q0,.04,0,.081a.182.182,0,0,0,.014.086v.354h0v.21h0v.095C701.762,264.134,701.762,264.2,701.762,264.266Z" transform="translate(-525.433 -190.939)" fill="#ff6584"/>
    <path id="Path_497" data-name="Path 497" d="M701.913,264.266v.587a.74.74,0,0,1,0,.081.546.546,0,0,1-.026.2c-.026.066,0,.089-.02.132h0a.52.52,0,0,1,0,.066.234.234,0,0,1,0,.04v.1l-.017.069a.306.306,0,0,1,0,.052.856.856,0,0,1-.02.089h0a.454.454,0,0,0,0,.06.724.724,0,0,0-.02.075l-.026.089a.066.066,0,0,1,0,.023l-.026.092c-.029.092-.058.187-.092.288a.263.263,0,0,1-.032.086l-.017.049a6.357,6.357,0,0,0-2.771-6.848c-.112-.072-.227-.141-.345-.2a6.356,6.356,0,0,0-6.115,0,5.686,5.686,0,0,0-.6.377,6.124,6.124,0,0,0-.832.7,6.462,6.462,0,0,0-.777-.662h0a6.267,6.267,0,0,0-.656-.414,6.359,6.359,0,0,0-7.547,1.076,6.262,6.262,0,0,0-.817.826,6.468,6.468,0,0,0-.348.55h0c-.1.178-.19.36-.271.544-.046.1-.086.2-.127.308a.419.419,0,0,1,.032-.118.4.4,0,0,1,.014-.063.149.149,0,0,1,0-.035l.026-.092h0c.02-.069.04-.138.063-.207l.035-.095c.046-.135.1-.268.152-.4l.035-.078c.017-.04.035-.081.055-.118s.06-.127.092-.19v-.014h0l.043-.086.052-.095.069-.118a.55.55,0,0,1,.032-.058l.02-.032h0l.043-.069c.014-.026.032-.052.049-.078l.112-.17.043-.058.052-.072.055-.075.066-.089a.785.785,0,0,1,.063-.075.259.259,0,0,1,.02-.029l.046-.052.069-.083.032-.037h0l.052-.06.06-.066.173-.178.069-.069.109-.1a.762.762,0,0,1,.072-.066l.083-.075.057-.049.055-.046.115-.092.058-.046c.095-.075.2-.147.288-.213l.06-.04.06-.04.058-.037.083-.052.04-.026.063-.037c.081-.046.164-.095.247-.138l.052-.026.109-.049.063-.032.063-.029.063-.032.066-.029.063-.029.265-.106.063-.023.069-.026.063-.02.055-.017.121-.04.06-.017.052-.014.049-.014.086-.026.115-.029.36-.078h.328c.115-.014.233-.026.348-.035h.964a2.612,2.612,0,0,1,.288.026l.124.017h.268c.121.023.242.049.36.078l.147.037h.04a.5.5,0,0,1,.06.017l.121.034.055.017.259.089.06.023.078.029.118.049.135.058.052.023.072.035.063.029.063.032.081.04.063.035.147.081.063.035.21.13.057.037.061.04.06.04h0l.04.026c.086.06.17.121.25.184a.445.445,0,0,1,.058.046c.04.029.078.06.115.092l.057.046.055.049.083.075a.763.763,0,0,1,.072.066l.109.1.069.069.069-.069.106-.1.072-.066.086-.075.055-.049.057-.046c.037-.032.075-.063.115-.092a.436.436,0,0,1,.058-.046c.095-.075.193-.147.288-.213l.06-.04.06-.04.055-.037.086-.052.04-.026.063-.037c.08-.046.164-.095.247-.138l.049-.026.078-.04.066-.032.063-.029.063-.032.066-.029.063-.029.262-.106.066-.023.069-.026.063-.02.052-.017.121-.04.063-.017.049-.014.049-.014.089-.026.115-.029c.121-.029.239-.055.36-.078h.328c.115-.014.23-.026.348-.035h.964l.288.026.124.017h.268c.121.023.239.049.36.078l.147.037h.037a.4.4,0,0,1,.063.017l.121.034.052.017.262.089.06.023.078.029.118.049.135.058.052.023.072.035.063.029.063.032.081.04.063.035.147.081.06.035.213.13.058.037.06.04.06.04h0l.04.026.25.184.057.046.115.092.055.046.058.049.072.063.075.066.04.04h0l.072.066.032.032.037.037.069.069.1.112.06.066c.035.034.066.072.1.109l.1.124a5.143,5.143,0,0,1,.334.449l.043.063.043.069a.67.67,0,0,1,.037.06,1.148,1.148,0,0,1,.063.1c.02.035.037.063.055.1l.035.057.026.046.026.046.035.069c0,.023.026.046.037.069a5.433,5.433,0,0,1,.224.495.526.526,0,0,1,.029.072c.029.069.055.138.078.207a.187.187,0,0,0,.023.063l.029.089.026.081a.072.072,0,0,0,.014.052c.014.017,0,.049.023.072l.026.092a.714.714,0,0,0,.037.15l.017.078.026.109v.049a.421.421,0,0,1,0,.063.273.273,0,0,1,0,.049.212.212,0,0,1,0,.043v.078a.686.686,0,0,1,0,.078.739.739,0,0,1,0,.081.182.182,0,0,0,.014.086v.354h0v.21h0v.095C701.913,264.134,701.913,264.2,701.913,264.266Z" transform="translate(-525.584 -190.939)" opacity="0.1"/>
    <path id="Path_498" data-name="Path 498" d="M406.677,286.25a.372.372,0,0,1,0,.055v.521a.828.828,0,0,1,0,.083,1.238,1.238,0,0,1-.026.2c-.012.069,0,.089-.02.132h0a.443.443,0,0,1,0,.066v.147l-.017.069a.334.334,0,0,1,0,.052.145.145,0,0,1-.02.089h0a.458.458,0,0,0-.014.06.688.688,0,0,0-.02.072l-.026.089a.083.083,0,0,1,0,.026l-.026.089c-.029.095-.057.187-.092.288a.8.8,0,0,1-.032.089l-.017.049a6.308,6.308,0,0,1-.843,1.534l-.066.089a6.289,6.289,0,0,1-.538.613l-8.98,8.98-8.98-8.981a6.407,6.407,0,0,1-.7-.834c-.132-.19-.253-.386-.365-.576a6.351,6.351,0,0,1-.765-3.611,2.8,2.8,0,0,1,.037-.345c.029-.2.066-.4.115-.6a.616.616,0,0,1,.029-.121l.017-.06a.191.191,0,0,1,0-.037.341.341,0,0,1,.023-.089h0c.02-.069.04-.138.063-.207s.023-.063.032-.1q.072-.2.155-.4l.034-.081c.017-.037.035-.078.055-.118s.06-.127.092-.187v-.014h0l.043-.083.052-.095.069-.121.032-.055.02-.032h0l.043-.069c.014-.026.032-.052.049-.078l.112-.17.043-.06.052-.072c.017-.023.035-.049.055-.072a1.025,1.025,0,0,1,.066-.089l.063-.078.02-.026.043-.055.072-.083.032-.035h0l.052-.06.06-.066.173-.181.069-.066.109-.1.072-.066.083-.075.058-.046.055-.049.115-.092.058-.046c.095-.072.193-.144.288-.213l.06-.04.06-.04.058-.034a.828.828,0,0,1,.083-.055l.04-.023.063-.037c.081-.049.164-.095.247-.138l.052-.029.026-.04.063-.032.063-.032.063-.029.066-.029.063-.029.265-.107.063-.023.069-.026.063-.023.055-.017.121-.037.06-.02.052-.014h.049l.086-.023.115-.029c.121-.032.239-.058.36-.078h.19l.086-.014h.052c.115,0,.233-.029.348-.037h.955l.288.029.124.014.083.014h.184c.121.02.242.046.36.075l.147.037h.04l.06.017.121.037.052.014c.089.029.175.058.262.092l.06.02.078.032.118.046.135.058.052.026.072.032.063.032.063.032.081.04.063.035.147.078.06.037c.072.04.144.083.213.129l.058.034.06.04.06.04h0a.205.205,0,0,1,.04.029q.127.086.25.181l.058.046.115.092.055.049.058.046.083.075.072.066.109.1.069.066.069-.066.107-.1.072-.066.086-.075.055-.046.058-.049.115-.092.058-.046c.095-.072.193-.144.288-.213l.06-.04.06-.04.055-.035.086-.055.04-.023.063-.037c.081-.049.164-.095.247-.138a.283.283,0,0,0,.049-.029l.078-.037.063-.032.066-.032.063-.029.066-.029.063-.029.262-.106.066-.023.069-.026.063-.023.052-.017.121-.037.063-.02.049-.014h.049l.089-.023.115-.029c.118-.032.239-.058.36-.078h.187l.089-.014h.052c.115,0,.23-.029.348-.037h.964l.288.029.127.014.083.014h.184c.121.02.239.046.36.075l.144.037h.04l.063.017.121.037.052.014c.089.029.176.058.262.092l.06.02.078.032.118.046.132.057.055.026.072.032.063.032.063.032.081.04.063.034.147.078.06.037c.072.04.144.083.213.129l.058.035.06.04.06.04h0l.04.029.25.181.058.046.115.092.055.049.058.046.072.066a.8.8,0,0,1,.072.066l.043.037h0l.072.066.029.029.04.037.069.072.1.109.06.066.1.112.1.124a4.785,4.785,0,0,1,.334.449l.043.063.043.069a.387.387,0,0,1,.037.057c.023.035.043.069.063.1l.055.092.035.06.026.046.026.046.035.066c.014.023.026.049.037.072a5.379,5.379,0,0,1,.224.492l.029.072q.043.1.078.207l.023.066a.4.4,0,0,0,.029.089l.026.081a.062.062,0,0,0,.014.049l.023.075a.857.857,0,0,1,.023.092c.014.049.026.1.04.147l.017.078.026.112v.046a.5.5,0,0,1,0,.063.333.333,0,0,1,0,.052.172.172,0,0,1,0,.04v.158a.75.75,0,0,1,0,.078v.089q0,.042,0,.083v.181a.869.869,0,0,1,0,.089h0a.341.341,0,0,0,0,.055v.153h0v.1C406.544,286.1,406.677,286.187,406.677,286.25Z" transform="translate(-315.246 -206.616)" fill="#ff6584"/>
    <path id="Path_499" data-name="Path 499" d="M406.856,286.25a.372.372,0,0,1,0,.055v.521a.828.828,0,0,1,0,.083,1.245,1.245,0,0,1-.026.2c-.012.069,0,.089-.02.132h0a.443.443,0,0,1,0,.066v.147l-.017.069a.319.319,0,0,1,0,.052.146.146,0,0,1-.02.089h0a.458.458,0,0,0-.014.06.687.687,0,0,0-.02.072l-.026.089a.083.083,0,0,1,0,.026l-.026.089c-.029.095-.058.187-.092.288a.811.811,0,0,1-.032.089l-.017.049a6.2,6.2,0,0,0-2.88-6.834c-.112-.075-.23-.141-.345-.207a6.373,6.373,0,0,0-6.115,0,6.171,6.171,0,0,0-.6.377,6.364,6.364,0,0,0-.832.7,6.226,6.226,0,0,0-.777-.662h0a6.3,6.3,0,0,0-.656-.417,6.373,6.373,0,0,0-6.115,0,6.16,6.16,0,0,0-.9.6,6.363,6.363,0,0,0-.532.475,6.27,6.27,0,0,0-.7.826c-.127.178-.242.363-.348.55h0c-.1.178-.19.36-.27.544-.046.1-.086.207-.127.311a.616.616,0,0,1,.029-.121l.017-.06a.191.191,0,0,1,0-.037.339.339,0,0,1,.023-.089h0c.02-.069.04-.138.063-.207s.023-.063.032-.1q.072-.2.155-.4l.034-.081c.017-.037.035-.078.055-.118s.06-.127.092-.187v-.014h0l.043-.083.052-.095.069-.121.032-.055.02-.032h0l.043-.069c.014-.026.032-.052.049-.078l.112-.17.043-.06.052-.072c.017-.023.035-.049.055-.072a1.037,1.037,0,0,1,.066-.089l.063-.078.02-.026.043-.055.072-.083.032-.035h0l.052-.06.06-.066.173-.181.069-.066.109-.1.072-.066.083-.075.058-.046.055-.049.115-.092.058-.046c.095-.072.193-.144.288-.213l.06-.04.06-.04.058-.034a.828.828,0,0,1,.083-.055l.04-.023.063-.037c.081-.049.164-.095.247-.138l.052-.029.13-.04.063-.032.063-.032.063-.029.066-.029.063-.029.265-.107.063-.023.069-.026.063-.023.055-.017.121-.037.06-.02.052-.014h.049l.086-.023.115-.029c.121-.032.239-.058.36-.078h.19l.086-.014h.052c.115,0,.233-.029.348-.037h.955l.288.029.124.014.083.014h.184c.121.02.242.046.36.075l.147.037h.04l.06.017.121.037.052.014c.089.029.176.058.262.092l.06.02.078.032.118.046.135.058.052.026.072.032.063.032.063.032.081.04.063.035.147.078.06.037c.072.04.144.083.213.129l.058.034.06.04.06.04h0a.2.2,0,0,1,.04.029q.127.086.25.181l.058.046.115.092.055.049.058.046.083.075.072.066.109.1.069.066.069-.066.106-.1.072-.066.086-.075.055-.046.058-.049.115-.092.058-.046c.095-.072.193-.144.288-.213l.06-.04.06-.04.055-.035.086-.055.04-.023.063-.037c.081-.049.164-.095.247-.138a.283.283,0,0,0,.049-.029l.078-.037.063-.032.066-.032.063-.029.066-.029.063-.029.262-.106.066-.023.069-.026.063-.023.052-.017.121-.037.063-.02.049-.014h.049l.089-.023.115-.029c.118-.032.239-.058.36-.078h.187l.089-.014h.052c.115,0,.23-.029.348-.037h.964l.288.029.127.014.083.014h.184c.121.02.239.046.36.075l.144.037h.04l.063.017.121.037.052.014c.089.029.176.058.262.092l.06.02.078.032.118.046.132.057.055.026.072.032.063.032.063.032.081.04.063.034.147.078.06.037c.072.04.144.083.213.129l.058.035.06.04.06.04h0l.04.029.25.181.058.046.115.092.055.049.058.046.072.066a.785.785,0,0,1,.072.066l.043.037h0l.072.066.029.029.04.037.069.072.1.109.06.066.1.112.1.124a4.774,4.774,0,0,1,.334.449l.043.063.043.069a.382.382,0,0,1,.037.057c.023.035.043.069.063.1l.055.092.035.06.026.046.026.046.035.066c.014.023.026.049.037.072a5.4,5.4,0,0,1,.224.492l.029.072q.043.1.078.207l.023.066a.4.4,0,0,0,.029.089l.026.081a.062.062,0,0,0,.014.049l.023.075a.857.857,0,0,1,.023.092c.014.049.026.1.04.147l.017.078.026.112v.046a.5.5,0,0,1,0,.063.333.333,0,0,1,0,.052.172.172,0,0,1,0,.04v.158a.75.75,0,0,1,0,.078v.089q0,.042,0,.083v.181a.869.869,0,0,1,0,.089h0a.341.341,0,0,0,0,.055v.153h0v.1C406.723,286.1,406.856,286.187,406.856,286.25Z" transform="translate(-315.425 -206.616)" opacity="0.1"/>
    <path id="Path_500" data-name="Path 500" d="M397,445.519v.1a.385.385,0,0,1,0,.058c0,.043,0,.089,0,.135v.173a.038.038,0,0,1,0,.017v.184l-.026.2a.3.3,0,0,1-.02.132h0v.1a.149.149,0,0,1,0,.035.534.534,0,0,1-.014.072.563.563,0,0,1-.014.069v.052a.164.164,0,0,1-.02.089h0l-.017.06-.017.075-.026.089v.023a.721.721,0,0,1-.029.092c-.026.092-.057.187-.089.288l-.032.086a.248.248,0,0,1-.02.049,6.216,6.216,0,0,1-.84,1.536l-.066.086a6.32,6.32,0,0,1-.541.613l-8.978,8.98-8.98-8.98a6.411,6.411,0,0,1-.7-.834,6.548,6.548,0,0,1-.365-.576,6.33,6.33,0,0,1-.765-3.611,2.266,2.266,0,0,1,.037-.342c.029-.2.066-.4.115-.6a.463.463,0,0,1,.029-.121l.017-.06v-.035l.026-.092h0c.023-.069.043-.138.066-.207l.032-.095c.049-.135.1-.268.155-.4l-.043-.081.052-.118c.032-.063.06-.127.095-.19v-.014h0l.046-.083.052-.095c.02-.04.043-.081.066-.118l.035-.058.017-.032h0c0-.023.026-.046.04-.069s.034-.052.049-.078l.115-.17c.014-.02.026-.04.04-.058l.052-.072.055-.075.069-.089.06-.078.023-.026.043-.055.072-.083.032-.034h0l.055-.06.083-.072c.055-.06.112-.121.173-.178l.069-.069.107-.1.072-.063.086-.075.055-.049.058-.046c.037-.032.075-.063.115-.092a.458.458,0,0,1,.058-.046c.1-.075.193-.147.288-.213l.06-.04a.444.444,0,0,1,.06-.04l.055-.037.086-.052.04-.026.063-.037c.081-.049.164-.095.247-.138l.049-.026.078-.04.063-.032.066-.029.063-.032.063-.029.066-.029.262-.107.066-.023.069-.026.063-.02.052-.017.121-.04.063-.02.049-.014h.049l.089-.026.115-.029c.118-.029.239-.055.36-.078h.328c.115-.014.23-.026.348-.035h.955l.288.026.127.017h.268c.121.02.239.046.36.075l.144.04h.04l.063.02.121.035.052.017c.089.026.176.058.262.089l.06.023.078.029.118.049.132.058.055.023.072.035.063.029.063.032.081.04.063.034.147.081.06.035c.072.043.144.083.213.129l.058.037.06.04.06.04h0l.04.026.25.184.058.046.115.092.055.046.057.049.083.075.072.063.106.1.072.069.069-.069.107-.1.072-.063.083-.075.058-.049.055-.046.115-.092.058-.046c.1-.075.2-.147.288-.213l.06-.04.06-.04.058-.037.083-.052.043-.026.06-.037.25-.138.049-.026.078-.04.063-.032.063-.029L388,439.7l.063-.029.066-.029.262-.106.066-.023.069-.026.063-.02.052-.017.121-.04.063-.02.049-.014h.049l.086-.026.118-.029c.118-.029.239-.055.36-.078h.325l.348-.035h.955a2.549,2.549,0,0,1,.288.026l.124.017h.27c.121.02.239.046.357.075l.147.04h.04l.063.02.121.034.052.017c.086.026.176.058.262.089l.058.023.078.029.118.049.135.057.052.023.072.034.066.029.063.032.081.04.063.035c.049.026.1.052.144.081l.063.034.213.13.058.037.06.04.058.04h0l.037.026c.086.06.17.121.25.184l.06.046.112.092.057.046.055.049.075.063.072.066.04.04h0l.069.066.032.032.037.037.069.069.106.112.06.063.1.112.1.124a5.189,5.189,0,0,1,.334.449l.043.063.043.069.037.06.063.1.055.095.035.058.026.046c0,.014.014.032.023.046s.026.046.037.069.023.046.037.069c.081.161.155.328.224.495,0,.023.02.046.029.072l.078.207.02.063a.278.278,0,0,0,.032.089.492.492,0,0,1,.023.081l.017.052.02.072.026.092c.014.049.026.1.037.15a.737.737,0,0,1,.02.078.832.832,0,0,0,.023.109v.88h0v.058a.4.4,0,0,0,0,.058q0,.048,0,.095h0v.1C396.842,445.375,397,445.455,397,445.519Z" transform="translate(-308.343 -320.065)" fill="#ff6584"/>
    <path id="Path_501" data-name="Path 501" d="M397.263,445.519v.1a.385.385,0,0,1,0,.058c0,.043,0,.089,0,.135v.173a.038.038,0,0,1,0,.017v.184l-.026.2a.3.3,0,0,1-.02.132h0v.1a.149.149,0,0,1,0,.035.515.515,0,0,1-.014.072.563.563,0,0,1-.014.069v.052a.164.164,0,0,1-.02.089h0l-.017.06-.017.075-.026.089v.023a.711.711,0,0,1-.029.092c-.026.092-.057.187-.089.288l-.032.086a.248.248,0,0,1-.02.049,6.166,6.166,0,0,0,.176-1.539,6.242,6.242,0,0,0-.216-1.6,6.379,6.379,0,0,0-2.728-3.712c-.115-.072-.23-.141-.348-.2a6.351,6.351,0,0,0-6.112,0,9.02,9.02,0,0,0-1.508,1.079,6.43,6.43,0,0,0-.777-.662h0a6.6,6.6,0,0,0-.656-.414,6.356,6.356,0,0,0-7.018.6,6.787,6.787,0,0,0-.529.475,6.261,6.261,0,0,0-.7.826,5.861,5.861,0,0,0-.348.55h0a5.963,5.963,0,0,0-.27.544c-.046.1-.089.2-.127.308a.463.463,0,0,1,.029-.121l.017-.06v-.035l.026-.092h0c.023-.069.043-.138.066-.207l.032-.095c.049-.135.1-.268.155-.4l.026-.066.052-.118.095-.19v-.014h0l.046-.083.052-.095c.02-.04.043-.081.066-.118l.035-.058.017-.032h0c0-.023.026-.046.04-.069s.034-.052.049-.078l.115-.17c.014-.02.026-.04.04-.058l.052-.072.055-.075.069-.089.06-.078.023-.026.043-.055.072-.083.032-.034h0l.055-.06.083-.072c.055-.06.112-.121.173-.178l.069-.069.107-.1.072-.063.086-.075.055-.049.058-.046c.037-.032.075-.063.115-.092a.45.45,0,0,1,.058-.046c.095-.075.193-.147.288-.213l.06-.04a.448.448,0,0,1,.06-.04l.055-.037.086-.052.04-.026.063-.037c.081-.049.164-.095.247-.138l.049-.026.078-.04.063-.032.066-.029.063-.032.063-.029.066-.029.262-.107.066-.023.069-.026.063-.02.052-.017.121-.04.063-.02.049-.014h.049l.089-.026.115-.029c.118-.029.239-.055.36-.078h.328c.115-.014.23-.026.348-.035h.955l.288.026.127.017h.268c.121.02.239.046.36.075l.144.04h.04l.063.02.121.035.052.017c.089.026.176.058.262.089l.06.023.078.029.118.049.132.058.055.023.072.035.063.029.063.032.081.04.063.034.147.081.06.035c.072.043.144.083.213.129l.058.037.06.04.06.04h0l.04.026.25.184.057.046.115.092.055.046.057.049.083.075.072.063.107.1.072.069.069-.069.106-.1.072-.063.083-.075.058-.049.055-.046.115-.092.058-.046c.1-.075.2-.147.288-.213l.06-.04.06-.04.058-.037.083-.052.043-.026.06-.037.25-.138.049-.026.078-.04.063-.032.063-.029.066-.032.063-.029.066-.029.262-.106.066-.023.069-.026.063-.02.052-.017.121-.04.063-.02.049-.014h.049l.086-.026.118-.029c.118-.029.239-.055.36-.078h.325l.348-.035h.955a2.551,2.551,0,0,1,.288.026l.124.017h.27c.121.02.239.046.357.075l.147.04h.04l.063.02.121.034.052.017c.086.026.176.058.262.089l.057.023.078.029.118.049.135.057.052.023.072.034.066.029.063.032.081.04.063.035c.049.026.1.052.144.081l.063.034.213.13.058.037.06.04.058.04h0l.037.026c.086.06.17.121.25.184l.06.046.112.092.057.046.055.049.075.063.072.066.04.04h0l.069.066.032.032.037.037.069.069.107.112.06.063.1.112.1.124a5.2,5.2,0,0,1,.334.449l.043.063.043.069.037.06.063.1.055.095.035.058.026.046c0,.014.014.032.023.046s.026.046.037.069.023.046.037.069c.081.161.155.328.224.495,0,.023.02.046.029.072l.078.207.02.063a.277.277,0,0,0,.032.089.5.5,0,0,1,.023.081l.017.052.02.072.026.092c.014.049.026.1.037.15a.768.768,0,0,1,.02.078.831.831,0,0,0,.023.109v.88h0v.058a.4.4,0,0,0,0,.058q0,.048,0,.095h0v.1C397.107,445.375,397.266,445.455,397.263,445.519Z" transform="translate(-308.609 -320.065)" opacity="0.1"/>
    <path id="Path_502" data-name="Path 502" d="M495.894,347.854v.072a.167.167,0,0,1,0,.037v.3a.43.43,0,0,1,0,.057l-.017.144-.017.092h0v.046a.108.108,0,0,1,0,.029v.158q0,.032,0,.063h0v.04a.079.079,0,0,1-.014.055l-.017.063v.014l-.017.066c-.02.066-.043.132-.066.2s0,.043-.02.063l-.014.034a4.537,4.537,0,0,1-.593,1.085l-.049.06a4.152,4.152,0,0,1-.38.435l-6.345,6.345L482,350.967a4.5,4.5,0,0,1-1.3-3.554,1.829,1.829,0,0,1,.029-.245,4.2,4.2,0,0,1,.081-.423.468.468,0,0,1,.02-.086.232.232,0,0,0,0-.043v-.026l.017-.063h0c.014-.052.032-.1.046-.147l.023-.069c.034-.095.069-.187.109-.288l.026-.055c0-.029.023-.055.037-.083l.063-.132h0a.639.639,0,0,0,.032-.06l.037-.066a.791.791,0,0,1,.049-.083.181.181,0,0,1,.023-.04v-.023h0l.032-.046.035-.055.081-.121.029-.043.035-.049.04-.055.049-.06a.4.4,0,0,1,.043-.055l.014-.02.032-.037c.017-.02.032-.04.049-.058l.023-.026h0l.037-.04.043-.049.121-.127.049-.049.078-.072a.371.371,0,0,0,.049-.046l.06-.052.04-.034.04-.032.081-.066.04-.032.207-.153.043-.029.043-.026.04-.026.058-.037.032-.017.043-.026c.058-.034.115-.069.176-.1l.034-.02.055-.029.046-.02.046-.023.043-.02.046-.02.046-.02.187-.075.046-.017.049-.017.043-.017h.037l.086-.029h.112l.063-.017.081-.02c.086-.023.17-.04.256-.055h.23c.081,0,.164-.02.245-.026h.682l.2.02h.279c.083.014.17.032.253.052l.1.029h.072l.086.023h.035l.187.063.04.017.055.02.083.035.095.04.037.017.052.023.046.023.043.02.058.029.043.026.1.055.043.026.153.092.04.026.04.026.043.029h0l.029.02c.06.04.118.083.175.13l.04.032.083.066.037.032.04.034.06.052.052.046a.876.876,0,0,0,.075.072l.049.049.049-.049a.9.9,0,0,0,.075-.072l.052-.046.06-.052.04-.034.037-.032.083-.066.04-.032c.066-.052.135-.1.207-.153l.043-.029.04-.026.04-.026.06-.037.029-.017.043-.026c.06-.035.118-.069.178-.1l.034-.02.055-.029.043-.02.046-.023.046-.02.046-.02.046-.02.184-.075.046-.017.049-.017.046-.017h.037l.083-.029h.115l.06-.017.083-.02c.083-.023.17-.04.253-.055h.233c.081,0,.161-.02.245-.026h.682l.2.02h.279l.25.052.1.029h.075l.083.023h.037l.184.063.043.017.055.02.083.035.095.04.037.017.049.023.046.023.046.02.055.029.046.026.1.055.043.026c.052.029.1.06.15.092l.04.026.043.026.043.029h0l.026.02c.06.04.121.083.178.13l.04.032a.88.88,0,0,1,.081.066l.04.032.04.034.052.046.052.046.029.029h0l.049.049.02.02.029.026.049.052.075.078.04.046.069.078.075.089c.083.1.161.207.236.317l.029.043c0,.017.02.035.032.049l.026.043c.014.023.032.046.046.072l.037.066a.282.282,0,0,1,.023.04l.02.032.017.035.026.049.026.049c.058.112.109.23.158.348l.02.052c.02.049.037.095.055.147a.255.255,0,0,1,.014.043.071.071,0,0,0,.023.063l.017.058a.273.273,0,0,0,0,.037.072.072,0,0,0,.014.052l.017.063a.463.463,0,0,0,.029.1.127.127,0,0,1,0,.058l.017.078v.078a.142.142,0,0,0,0,.034v.259a.434.434,0,0,1,0,.06v.032a.421.421,0,0,0,0,.063.115.115,0,0,0,0,.032v.063h0a.2.2,0,0,1,0,.04.185.185,0,0,1,0,.04.566.566,0,0,1,0,.069h0a.566.566,0,0,1,0,.069Z" transform="translate(-383.329 -251.844)" fill="#ff6584"/>
    <path id="Path_503" data-name="Path 503" d="M496.275,347.811v.072a.16.16,0,0,1,0,.037v.3a.431.431,0,0,1,0,.058l-.017.144-.017.092h0v.046a.1.1,0,0,1,0,.029v.158a.608.608,0,0,0,0,.063h0v.04a.079.079,0,0,1-.014.055l-.017.063v.014l-.017.066c-.02.066-.043.132-.066.2s0,.043-.02.063l-.014.035a4.48,4.48,0,0,0,.124-1.088,4.576,4.576,0,0,0-.152-1.131,4.5,4.5,0,0,0-1.151-2.014,4.563,4.563,0,0,0-.768-.616c-.081-.049-.161-.1-.245-.144a4.5,4.5,0,0,0-4.316,0,4.967,4.967,0,0,0-.426.265,4.728,4.728,0,0,0-.576.495,4.6,4.6,0,0,0-.547-.466h0a3.962,3.962,0,0,0-.466-.288,4.5,4.5,0,0,0-4.316,0,4.379,4.379,0,0,0-.636.426,4.585,4.585,0,0,0-.374.334,4.709,4.709,0,0,0-.495.576c-.089.127-.17.256-.245.388h0a4.026,4.026,0,0,0-.193.385c-.032.072-.06.144-.089.219a.469.469,0,0,1,.02-.086.243.243,0,0,0,0-.043v-.026l.017-.063h0c.014-.052.032-.1.046-.147l.023-.069c.035-.095.069-.187.109-.288l.026-.055c0-.029.023-.055.037-.083l.063-.132h0a.619.619,0,0,0,.032-.06l.037-.066a.8.8,0,0,1,.049-.083.187.187,0,0,1,.023-.04v-.023h0l.032-.046.035-.055.081-.121.029-.043.035-.049.04-.055.049-.06a.4.4,0,0,1,.043-.055l.014-.02.032-.037c.017-.02.032-.04.049-.058l.023-.026h0l.037-.04.043-.049.121-.127.049-.049.078-.072a.367.367,0,0,0,.049-.046l.06-.052.04-.034.04-.032.081-.066.04-.032.207-.153.043-.029.043-.026.04-.026.058-.037.032-.017.043-.026c.058-.034.115-.069.176-.1l.035-.02.055-.029.046-.02.046-.023.043-.02.046-.02.046-.02.187-.075.046-.017.049-.017.043-.017h.037l.086-.029h.112l.063-.017.081-.02c.086-.023.17-.04.256-.055h.23c.081,0,.164-.02.245-.026h.682l.2.02h.279c.083.014.17.032.253.052l.1.029h.072l.086.023h.035l.187.063.04.017.055.02.083.035.095.04.037.017.052.023.046.023.043.02.058.029.043.026.1.055.043.026.152.092.04.026.04.026.043.029h0l.029.02c.06.04.118.083.176.13l.04.032.083.066.037.032.04.034.06.052.052.046a.905.905,0,0,0,.075.072l.049.049.049-.049a.9.9,0,0,0,.075-.072l.052-.046.06-.052.04-.034.037-.032.083-.066.04-.032c.066-.052.135-.1.207-.153l.043-.029.04-.026.04-.026.06-.037.029-.017.043-.026c.06-.035.118-.069.178-.1l.035-.02.055-.029.043-.02.046-.023.046-.02.046-.02.046-.02.184-.075.046-.017.049-.017.046-.017h.037l.083-.029h.115l.06-.017.083-.02c.083-.023.17-.04.253-.055h.233c.081,0,.161-.02.245-.026h.682l.2.02h.279l.25.052.1.029h.075l.083.023h.037l.184.063.043.017.055.02.083.035.095.04.037.017.049.023.046.023.046.02.055.029.046.026.1.055.043.026c.052.029.1.06.15.092l.04.026.043.026.043.029h0l.026.02c.06.04.121.083.178.13l.04.032a.89.89,0,0,1,.081.066l.04.032.04.034.052.046.052.046.029.029h0l.049.049.02.02.029.026.049.052.075.078.04.046.069.078.075.089c.083.1.161.207.236.317l.029.043c0,.017.02.035.032.049l.026.043c.014.023.032.046.046.072l.037.066a.283.283,0,0,1,.023.04l.02.032.017.035.026.049.026.049c.058.112.109.23.158.348l.02.052c.02.049.037.095.055.147a.256.256,0,0,1,.014.043.071.071,0,0,0,.023.063l.017.058a.264.264,0,0,0,0,.037.072.072,0,0,0,.014.052l.017.063a.463.463,0,0,0,.029.1c.009.035,0,.037,0,.058l.017.078v.078a.142.142,0,0,0,0,.034v.259a.434.434,0,0,1,0,.06v.032a.438.438,0,0,0,0,.063.12.12,0,0,0,0,.032v.063h0a.2.2,0,0,1,0,.04.193.193,0,0,1,0,.04.566.566,0,0,1,0,.069h0a.543.543,0,0,1,0,.069Z" transform="translate(-383.709 -251.802)" opacity="0.1"/>
    <path id="Path_504" data-name="Path 504" d="M731.989,432.27v.072a.2.2,0,0,1,0,.04v.115a.716.716,0,0,0,0,.078v.109a.4.4,0,0,1,0,.058l-.017.144v.095h0v.046a.088.088,0,0,1,0,.029v.026a.409.409,0,0,1,0,.049v.15h0a.231.231,0,0,0,0,.043v.052l-.017.063v.017a.544.544,0,0,0-.02.063c-.02.066-.04.132-.063.2a.515.515,0,0,0-.023.061l-.014.034a4.483,4.483,0,0,1-.593,1.085l-.046.06a4.545,4.545,0,0,1-.383.434l-6.345,6.345-6.33-6.345a4.523,4.523,0,0,1-.757-1,4.492,4.492,0,0,1-.541-2.552,1.145,1.145,0,0,1,.026-.242,4.274,4.274,0,0,1,.081-.426.123.123,0,0,1,.023-.086.254.254,0,0,1,0-.043.084.084,0,0,1,0-.026l.017-.063h0a.571.571,0,0,1,.046-.147.65.65,0,0,0,.023-.069c.035-.095.072-.187.109-.288l.026-.058a.237.237,0,0,1,.037-.083c.014-.029.043-.089.066-.132h0l.029-.06.037-.066c.017-.029.032-.058.049-.083a.283.283,0,0,1,.023-.04s0-.014,0-.023h0c0-.017.02-.035.032-.049l.035-.055.081-.121.029-.04.037-.052.037-.052.049-.063.043-.055v-.02l.032-.037.049-.058.023-.026h0l.037-.043.043-.046c.04-.043.081-.086.124-.127a.394.394,0,0,1,.049-.049.875.875,0,0,1,.075-.072l.052-.046a.518.518,0,0,1,.057-.055l.04-.035.04-.032.081-.066.04-.032c.069-.052.138-.1.207-.15l.043-.029.043-.029.04-.026.06-.037.029-.017.043-.026.176-.1.035-.02.055-.026.046-.023.046-.02.046-.023.043-.02.046-.02.187-.075.046-.017.049-.017.043-.014.037-.014.086-.026h.112l.063-.017.081-.02c.086-.02.17-.04.256-.055h.23l.248-.026h.679l.2.02h.276a2.469,2.469,0,0,1,.253.055l.1.026h.072l.086.026h.037l.184.063h.04l.055.02.083.035.095.04.037.017.052.026.046.02.043.023.058.029.046.023.1.058.046.023.15.092.04.026.043.029.04.029h0l.029.02.176.129.043.032.081.066.04.032.037.035.06.055.052.046.075.072a.4.4,0,0,1,.049.049c.017-.017.032-.034.049-.049l.078-.072a.371.371,0,0,1,.049-.046l.06-.055.04-.035.04-.032.081-.066.04-.032c.069-.052.138-.1.207-.15l.043-.029.043-.029.04-.026.058-.037.032-.017.043-.026.176-.1.035-.02.055-.026.046-.023.043-.02.046-.023.046-.02.046-.02.184-.075.046-.017.049-.017.046-.014.037-.014.086-.026h.112l.063-.017.081-.02c.083-.02.17-.04.253-.055h.233l.245-.026h.682l.2.02h.279c.083.014.17.032.253.055l.1.026h.072l.083.026h.037l.184.063h.043l.055.02.083.035.095.04.037.017.052.026.043.02.046.023.057.029.043.023.1.058.043.023c.052.029.1.06.15.092l.04.026.043.029.043.029h0l.029.02.176.13.04.032.08.066.04.032.04.035.052.046.052.046a.252.252,0,0,0,.029.029h0c0,.017.032.032.049.049l.023.02.026.029.049.049.075.078.04.046a.942.942,0,0,1,.069.081l.075.086c.083.1.161.207.236.316,0,.014.02.029.029.046l.032.046.026.043c.017.023.031.049.046.072l.037.066.026.04.017.034.017.032.026.049.026.049c.058.115.112.23.158.348a.392.392,0,0,1,.02.052c.02.049.037.1.055.147l.017.046a.477.477,0,0,0,.02.06l.017.058v.089l.017.063a.486.486,0,0,0,.029.106c.009.035,0,.035,0,.055l.017.078v.622h0a.174.174,0,0,0,0,.037v.04a.543.543,0,0,1,0,.069h0a.543.543,0,0,1,0,.069Z" transform="translate(-551.519 -311.952)" fill="#ff6584"/>
    <path id="Path_505" data-name="Path 505" d="M732.322,432.284v.072a.2.2,0,0,1,0,.04v.115a.717.717,0,0,0,0,.078v.109a.4.4,0,0,1,0,.058l-.017.144v.095h0v.046a.088.088,0,0,1,0,.029v.026a.409.409,0,0,1,0,.049v.15h0a.232.232,0,0,0,0,.043v.052l-.017.063v.017a.526.526,0,0,0-.02.063c-.02.066-.04.132-.063.2a.5.5,0,0,0-.023.06l-.014.034A4.478,4.478,0,0,0,730.21,429c-.081-.052-.161-.1-.245-.147a4.5,4.5,0,0,0-4.316,0,4.386,4.386,0,0,0-.426.268,4.5,4.5,0,0,0-.575.495,4.407,4.407,0,0,0-.547-.469h0a5.231,5.231,0,0,0-.463-.288,4.5,4.5,0,0,0-4.316,0,4.62,4.62,0,0,0-.636.426,4.124,4.124,0,0,0-.374.337,4.261,4.261,0,0,0-.492.575,3.731,3.731,0,0,0-.247.391h0c-.072.127-.135.256-.193.386-.031.072-.06.144-.089.219a.124.124,0,0,1,.023-.086.255.255,0,0,1,0-.043.084.084,0,0,1,0-.026l.017-.063h0a.577.577,0,0,1,.046-.147.649.649,0,0,0,.023-.069c.034-.095.072-.187.109-.288l.026-.058a.234.234,0,0,1,.037-.083c.014-.029.043-.089.066-.132h0l.029-.06.037-.066c.017-.029.032-.058.049-.083a.294.294,0,0,1,.023-.04v-.023h0c0-.017.02-.035.032-.049l.035-.055.08-.121.029-.04.037-.052.037-.052.049-.063.043-.055v-.02l.031-.037.049-.057.023-.026h0l.037-.043.043-.046c.04-.043.081-.086.124-.127a.378.378,0,0,1,.049-.049.875.875,0,0,1,.075-.072l.052-.046a.5.5,0,0,1,.057-.055l.04-.035.04-.032.081-.066.04-.032c.069-.052.138-.1.207-.15l.043-.029.043-.029.04-.026.06-.037.029-.017.043-.026.176-.1.034-.02.055-.026.046-.023.046-.02.046-.023.043-.02.046-.02.187-.075.046-.017.049-.017.043-.014.037-.014.086-.026h.112l.063-.017.081-.02c.086-.02.17-.04.256-.055h.23l.247-.026h.679l.2.02h.276a2.471,2.471,0,0,1,.253.055l.1.026h.072l.086.026h.037l.184.063h.04l.055.02.083.034.095.04.037.017.052.026.046.02.043.023.058.029.046.023.1.058.046.023.15.092.04.026.043.029.04.029h0l.029.02.175.13.043.032.081.066.04.032.037.035.06.055.052.046.075.072a.394.394,0,0,1,.049.049c.017-.017.031-.035.049-.049l.078-.072a.359.359,0,0,1,.049-.046l.061-.055.04-.035.04-.032.081-.066.04-.032c.069-.052.138-.1.207-.15l.043-.029.043-.029.04-.026.058-.037.032-.017.043-.026.176-.1.035-.02.055-.026.046-.023.043-.02.046-.023.046-.02.046-.02.184-.075.046-.017.049-.017.046-.014.037-.014.086-.026h.112l.063-.017.081-.02c.083-.02.17-.04.253-.055h.233l.245-.026h.682l.2.02h.279c.084.014.17.032.253.055l.1.026h.072l.083.026h.037l.184.063h.043l.055.02.083.034.095.04.037.017.052.026.043.02.046.023.057.029.043.023.1.058.043.023c.052.029.1.06.15.092l.04.026.043.029.043.029h0l.029.02.176.129.04.032.081.066.04.032.04.035.052.046.052.046a.272.272,0,0,0,.029.029h0c0,.017.032.032.049.049l.023.02.026.029.049.049.075.078.04.046a.916.916,0,0,1,.069.081l.075.086c.083.1.161.207.236.317,0,.014.02.029.029.046l.032.046.026.043c.017.023.032.049.046.072l.037.066.026.04.017.034.017.032.026.049.026.049c.058.115.112.23.158.348a.411.411,0,0,1,.02.052c.02.049.037.1.055.147l.017.046a.484.484,0,0,0,.02.06l.017.057v.089l.017.063a.492.492,0,0,0,.029.106c.009.035,0,.035,0,.055l.017.078v.621h0a.175.175,0,0,0,0,.037v.04a.543.543,0,0,1,0,.069h0a.544.544,0,0,1,0,.069Z" transform="translate(-551.852 -311.966)" opacity="0.1"/>
    <path id="Path_506" data-name="Path 506" d="M552.01,273.088h0a33.121,33.121,0,0,0-2.923-2.633c.124-1.542.411-5.234.437-5.945.029-.9-1.3-2.052-4.135-3.113s-2.014,3.89-1.974,4.336a3.339,3.339,0,0,0,1.726,2.239c.383.158.486.357.46.544l-.089-.014a11.1,11.1,0,0,1-3.387-.829,17.884,17.884,0,0,0-.863,3.833v.2a1.481,1.481,0,0,0,.069.668h.2a2.17,2.17,0,0,1-.158.984h0a7.587,7.587,0,0,1-.288.708,19.822,19.822,0,0,1-.135-2.132,17.991,17.991,0,0,0-1.053-3.5,4.895,4.895,0,0,1-1.418-1.289,5.662,5.662,0,0,0-2.38-1.8c-.653-.23-3.021-3.312-4-4.028-.777-.575-1.091-.236-1.185-.075l-.058.04a3.41,3.41,0,0,1-.774-1.652c0-.314.032-.958.089-1.775a7.481,7.481,0,0,1,.944.863c.662.734,1.151,1.608,1.873,2.285a3.05,3.05,0,0,0,2.066.9,1.908,1.908,0,0,0,.748-.118c.961-.371,1.58-1.542,2.59-1.588.794.04,1.378.774,2.029,1.257a2.719,2.719,0,0,0,1.672.575,1.906,1.906,0,0,0,.705-.112,1.51,1.51,0,0,0,.918-1.922c-.53-1.116-2.331-.863-3.1-1.836a.76.76,0,0,1-.178-.714.5.5,0,0,1,.466-.34,1.622,1.622,0,0,1,.964.46c.374.38.863.863,1.327.811a.63.63,0,0,0,.377-.072c.014-.342.032-.685.046-1.027a3.582,3.582,0,0,0,1.6.455,1.876,1.876,0,0,0,.311-.014,1.252,1.252,0,0,0,1.116-1.232,1.4,1.4,0,0,0,.958.319,1.307,1.307,0,0,0,.46-.058,1.392,1.392,0,0,0,.932-1.2,2.731,2.731,0,0,0-.728-1.726l-1.882-2.572a1.041,1.041,0,0,1-.288-.742,1.544,1.544,0,0,1,.322-.576,2.008,2.008,0,0,0-.391-2.475,3.489,3.489,0,0,0-2.509-.832,3.292,3.292,0,0,1-1.988-.259,2.265,2.265,0,0,1-.777-1.355c-.4-1.514-.423-3.1-.7-4.641a6.368,6.368,0,0,0-2.129-4.06,1.971,1.971,0,0,0-.987-.432,7,7,0,0,0-.915.075,3.343,3.343,0,0,1-2.613-1.467,23.3,23.3,0,0,0-1.9-2.466,4.643,4.643,0,0,0-4.414-1.021c-.673.187-1.208.734-1.9.763a22.782,22.782,0,0,1-3.148-.288,8.7,8.7,0,0,0-2.877.063,3.062,3.062,0,0,0-2.014,1.493l-.245-2.075a36.192,36.192,0,0,0-.734-4.233,1.055,1.055,0,0,1,.029-.924l.046.043c.035-.1.072-.21.109-.317a.75.75,0,0,0,0-.242,44.209,44.209,0,0,0-1.338-5.786h-1.283a1.033,1.033,0,0,0-.032-.184,34.737,34.737,0,0,0-1.439-5.979,3.567,3.567,0,0,1-.259-1.934,15.513,15.513,0,0,0,.06-2.282,6.244,6.244,0,0,1,.052-1.1,1.542,1.542,0,0,0-.613-1.439c-1.683-1.249-5.775-4.092-8.169-4.164-3.067-.092.961,5.292.915,5.8s3.067.967,3.067.967.184,1.562.368,2.437c.127.607.34,5.11.46,7.812a8.581,8.581,0,0,1-2.063-.774s-3.571-.964-3.893,0,4.351,5.614,4.351,5.614,1.649,4.371,1.151,5.755-.138,7.913-.138,7.913.046,7.769.388,9.754a3.823,3.823,0,0,1-.619,3.082s-.411,4.877,0,5.338a14.247,14.247,0,0,1,1.128,1.81l.121.219c-1.352,1.652-2.7,3.231-3.4,3.453-1.373.414-10.756,4.316-10.756,4.316s-3.064,2.929-3.528,2.929,2.791,3.131,2.791,3.131,2.929,2.345,3.251,2.713,8.345,4.739,8.345,4.739,1.375.414,1.511.829,1.968,1.562,1.968,1.562a11.955,11.955,0,0,1,1.772,2.659.621.621,0,0,0,.02.2c.017.288.037.42.055.351.245.673,1.893,2.391,1.1,3.617-.368.575,0,1.608.711,2.443a8.774,8.774,0,0,1-.748,2.59c-.55.737-.3,1.778-.863,1.9s-.734,2.823-.734,2.823l-.475,5.948s-.124,1.226-.794,1.534,0,1.962,0,1.962-.719,1.41-.288,2.207-.863,4.48-.863,4.48-.55,7.116,0,8.1a8.058,8.058,0,0,1,.863,3.128c0,.613.3,12.085.3,12.085s-.734,4.661-.978,5.519.673,2.762.063,3.741a7.261,7.261,0,0,0-.489,3.188s-.915,8.65-.365,11.841-.176,3.864-.176,3.864a6.535,6.535,0,0,0,1.185.524c.014.121.029.25.043.383.288,2.676.711,7.286.325,8.345a16.819,16.819,0,0,0-.532,4.19v.187h0l-1.068,1.726a5.524,5.524,0,0,1-.489,1.767c-.276.245-2.57,4.408-2.877,4.943l-.032.058s-2.319,4.264,3.418,4.385,5-2.82,5-2.82.017-.576.072-1.28a6.177,6.177,0,0,1,.417-2.187,30.741,30.741,0,0,0,1.557-2.791V380.05h-.368a.593.593,0,0,1,.02-.184,12.738,12.738,0,0,1,.319-2.086,12.919,12.919,0,0,0-.4-3.007,67.684,67.684,0,0,1,.693-8.091c.026-.138.052-.273.078-.4a9.773,9.773,0,0,0,1.234-.645s0-6.255.734-7.36.578-4.233.578-4.233.181-2.759.731-3.312.42-3.007.42-3.007.486-1.594,1.036-2.877a24.92,24.92,0,0,0,.863-4.906,6.224,6.224,0,0,1,.863-1.781c.613-.863,0-2.759,0-2.759a3.36,3.36,0,0,1-.242-2.454c.429-1.229,2.805-11.164,2.805-11.164l.918-3.556,1.341,4.538a31.168,31.168,0,0,0,0,4.172,13.021,13.021,0,0,0,1.465,2.877v9.631s.124,6.5.613,7.545a24.216,24.216,0,0,1,.731,4.909s1.649,11.349.61,13a9.937,9.937,0,0,0,1.686.924v6.684s-1.2,4.046-.788,6.8a1.076,1.076,0,0,0,.026.164c-.109.081-.23.15-.305.121l.193,4.6a14.252,14.252,0,0,1-.437,3.9,5.545,5.545,0,0,0-.288,1.462c-.107,1.821.6,4.316,4.6,4.057,5.338-.34,4.515-3.741,4.515-3.741s0-.132-.02-.365a13.864,13.864,0,0,0-1.324-5,12.59,12.59,0,0,1-1.1-5.645,1.969,1.969,0,0,1-.325.086.839.839,0,0,1,.014-.187c.069-.863.176-1.983.288-2.506a16.428,16.428,0,0,0,0-3.064l.688-6.719.037-.374a5.514,5.514,0,0,0,.947-.576h0a6.88,6.88,0,0,1-.354-1.87,1.651,1.651,0,0,1,.354-1.183c.794-.8,1.341-10.8,1.341-10.8s.432-3.519.434-4.707v-.213c-.049-.716-.429-3.522-.423-5.159a3.247,3.247,0,0,1,.118-1.024c.365-.921.863-18.22.863-18.22l.61-7.665v-6.3a37.138,37.138,0,0,0-1.093-8.949c1.665.872,4.517,2.834,5.038,2.31.642-.645.961-11.688.777-12.79a1.162,1.162,0,0,0-.043-.224c-.043-.2-.106-.472-.184-.786l.253-.44c1.252-2.167,3.165-5.608,3.318-6.618a43.619,43.619,0,0,1,.832-5.45,2.516,2.516,0,0,1,.124-.308h0c.112-.227.233-.351.371-.317.78.184,1.283.783,1.695.552a.2.2,0,0,0,.055-.046h0a.689.689,0,0,0,.1-.147h0a1.442,1.442,0,0,0,.1-.21h0c.029-.075.055-.158.08-.247v-.026a.542.542,0,0,1,.029-.112.174.174,0,0,0,0-.037.4.4,0,0,1,.023-.1l.017-.072v-.037c.072-.325.127-.662.161-.9a1.2,1.2,0,0,1,.029-.213v-.115Z" transform="translate(-390.564 -151.42)" fill="url(#linear-gradient)"/>
    <path id="Path_507" data-name="Path 507" d="M559.323,489.505a.979.979,0,0,0-.063-.515C559.28,489.4,559.3,489.594,559.323,489.505Z" transform="translate(-439.294 -355.528)" fill="url(#linear-gradient-2)"/>
    <path id="Path_508" data-name="Path 508" d="M674.881,416.988s1.088-.742.026-1.18a3.336,3.336,0,0,1-1.726-2.227c-.04-.443-.863-5.369,1.974-4.316s4.164,2.2,4.135,3.1-.489,6.589-.489,6.589Z" transform="translate(-520.334 -298.639)" fill="#fbbebe"/>
    <path id="Path_509" data-name="Path 509" d="M675.613,436.719a1.684,1.684,0,0,1-.043.328c-.083.576-.288,1.761-.6,1.931-.411.23-.915-.365-1.695-.55-.138-.032-.259.089-.371.317a2.734,2.734,0,0,0-.124.3,43.387,43.387,0,0,0-.832,5.427c-.155,1.01-2.066,4.437-3.318,6.592-.187.325-.363.622-.512.863-.345.576-.575.952-.575.952l-3.165-5.933V438.2a7.761,7.761,0,0,0,.576-1.211h0a2.137,2.137,0,0,0,.158-.978.5.5,0,0,0-.135-.288.35.35,0,0,1-.06-.089.467.467,0,0,1-.029-.075.953.953,0,0,1-.04-.224v-.19a17.786,17.786,0,0,1,.863-3.815,10.705,10.705,0,0,0,3.387.823C671.432,432.426,675.613,436.719,675.613,436.719Z" transform="translate(-514.167 -314.459)" fill="#2da4e9"/>
    <path id="Path_510" data-name="Path 510" d="M676.73,437.98c-.084.575-.288,1.761-.6,1.931-.411.23-.915-.365-1.695-.55-.138-.032-.259.089-.371.317a2.667,2.667,0,0,0-.124.3c-1.574-.765-4.316-2.152-4.492-2.544s-2.086-.481-3.165-.5h-.2a1.46,1.46,0,0,1-.069-.665,19.966,19.966,0,0,1,.863-3.637,10.7,10.7,0,0,0,3.387.823C672.472,433.716,676.293,437.537,676.73,437.98Z" transform="translate(-515.327 -315.392)" opacity="0.1"/>
    <path id="Path_511" data-name="Path 511" d="M676.817,436.7s-.23,2.029-.641,2.256-.915-.365-1.695-.547c-.138-.035-.259.086-.371.314-1.551-.754-4.446-2.2-4.6-2.6s-2.337-.492-3.361-.5c-.377-.788.794-4.316.794-4.316a10.742,10.742,0,0,0,3.387.826C672.659,432.4,676.817,436.7,676.817,436.7Z" transform="translate(-515.371 -314.438)" fill="#2da4e9"/>
    <path id="Path_512" data-name="Path 512" d="M643.271,448.8c-.642.642-4.808-2.472-5.95-2.656s-5.295-17.575-5.295-17.575l.625-9.8-2.434-9.018-.317-1.18s.242-.719,1.22,0,3.355,3.787,4,4.014a5.732,5.732,0,0,1,2.38,1.79,4.85,4.85,0,0,0,1.418,1.28,17.888,17.888,0,0,1,1.053,3.479c-.046.685.368,5.358.863,5.769s1.327,4.166,1.327,4.166,1.513,5.274,1.833,6.779a2.13,2.13,0,0,1,.043.224C644.232,437.17,643.913,448.156,643.271,448.8Z" transform="translate(-489.608 -298.019)" fill="#2da4e9"/>
    <path id="Path_513" data-name="Path 513" d="M647.127,473.33l3.021.809s.575,5.22.788,5.5.949,10.986.949,10.986l-4.759-2.152-1.787-5.755v-6.368Z" transform="translate(-500.605 -344.374)" opacity="0.1"/>
    <path id="Path_514" data-name="Path 514" d="M556.646,765.094a10.217,10.217,0,0,0-.434,1.726,65.206,65.206,0,0,0-.693,8.057,12.934,12.934,0,0,1,.4,2.992,12.552,12.552,0,0,0-.319,2.075c-.049.449-.078.791-.078.791l-5.588-.365s0-.331.017-.837a17.051,17.051,0,0,1,.532-4.167c.377-1.053-.034-5.651-.325-8.316-.124-1.151-.224-1.939-.224-1.939S557.587,762.642,556.646,765.094Z" transform="translate(-432.649 -551.412)" fill="#fbbebe"/>
    <path id="Path_515" data-name="Path 515" d="M632.632,766.59l-.688,6.684a16.278,16.278,0,0,1,0,3.05c-.1.521-.21,1.631-.288,2.495-.052.653-.086,1.168-.086,1.168s-4.273,2.992-5.248.365a4.649,4.649,0,0,1-.242-.984c-.409-2.742.788-6.768.788-6.768V764l5.922.967Z" transform="translate(-486.826 -551.406)" fill="#fbbebe"/>
    <path id="Path_516" data-name="Path 516" d="M556.682,765.092a10.2,10.2,0,0,0-.435,1.726,8.526,8.526,0,0,1-6.043.227c-.124-1.151-.224-1.939-.224-1.939S557.622,762.641,556.682,765.092Z" transform="translate(-432.684 -551.411)" opacity="0.1"/>
    <path id="Path_517" data-name="Path 517" d="M634.982,764.95l-.167,1.62a7.053,7.053,0,0,1-5.755-.288v-2.3Z" transform="translate(-489.01 -551.392)" opacity="0.1"/>
    <path id="Path_518" data-name="Path 518" d="M552.29,506.21s-.486,3.6-1.036,4.336-.3,1.77-.863,1.89-.734,2.808-.734,2.808l-.466,5.922s-.124,1.22-.794,1.525,0,1.954,0,1.954-.719,1.4-.288,2.2-.863,4.454-.863,4.454-.55,7.081,0,8.057a8.007,8.007,0,0,1,.863,3.113c0,.61.3,12.025.3,12.025s-.734,4.641-.978,5.5.673,2.745.063,3.723a7.172,7.172,0,0,0-.489,3.165s-.944,8.618-.394,11.783-.176,3.844-.176,3.844a8.543,8.543,0,0,0,8.6-.365s0-6.227.734-7.326.613-4.21.613-4.21.181-2.748.731-3.3.42-2.984.42-2.984.486-1.588,1.036-2.877a24.892,24.892,0,0,0,.863-4.892,6.157,6.157,0,0,1,.863-1.773c.613-.863,0-2.745,0-2.745a3.334,3.334,0,0,1-.242-2.443c.429-1.22,2.806-11.11,2.806-11.11l.918-3.539,1.341,4.518a30.828,30.828,0,0,0,0,4.149,13.16,13.16,0,0,0,1.465,2.877v9.585s.124,6.471.613,7.507a24.042,24.042,0,0,1,.731,4.892s1.649,11.294.61,12.948c0,0,4.7,3.355,8.425.61,0,0-.794-2.259,0-3.053s1.341-10.744,1.341-10.744.489-3.968.429-4.892-.671-5.249-.305-6.163.863-18.128.863-18.128l.61-7.628v-6.244a36.667,36.667,0,0,0-1.381-10c-1.033-3.64-2.463-7.815-3.666-8.077C574.834,507.1,555.892,509.2,552.29,506.21Z" transform="translate(-430.163 -367.793)" fill="#3f3d56"/>
    <path id="Path_519" data-name="Path 519" d="M555.6,815.993c-.049.449-.078.791-.078.791l-5.588-.365s0-.331.017-.837c2.621-2.325,5.234.411,5.234.411Z" transform="translate(-432.649 -587.479)" opacity="0.1"/>
    <path id="Path_520" data-name="Path 520" d="M543.771,816.652v3.39a27.18,27.18,0,0,1-1.557,2.777,6.071,6.071,0,0,0-.417,2.175c-.055.691-.072,1.272-.072,1.272s.734,2.932-5,2.808-3.418-4.365-3.418-4.365l.032-.055c.288-.535,2.61-4.69,2.877-4.92a5.617,5.617,0,0,0,.489-1.758l1.068-1.727c2.627-2.348,5.251.4,5.251.4Z" transform="translate(-420.476 -587.945)" fill="#3f3d56"/>
    <path id="Path_521" data-name="Path 521" d="M541.725,849.41s.734,2.932-5,2.808-3.418-4.354-3.418-4.354l.032-.055c.158.863.834,1.758,2.99,1.643a13.231,13.231,0,0,0,5.467-1.3C541.742,848.828,541.725,849.41,541.725,849.41Z" transform="translate(-420.476 -611.1)" opacity="0.1"/>
    <path id="Path_522" data-name="Path 522" d="M631.9,814.14c-.052.653-.086,1.168-.086,1.168s-4.273,2.993-5.248.365a4.637,4.637,0,0,1-.242-.984,2.365,2.365,0,0,0,.242-.207c.7-1.036,4.423-1.068,4.6-.575C631.278,814.189,631.632,814.189,631.9,814.14Z" transform="translate(-487.058 -586.733)" opacity="0.1"/>
    <path id="Path_523" data-name="Path 523" d="M628.144,829.4c-4.028.253-4.722-2.224-4.6-4.028a5.464,5.464,0,0,1,.288-1.453,14.13,14.13,0,0,0,.437-3.882l-.193-4.578c.152.06.521-.3.521-.3.7-1.036,4.423-1.068,4.6-.575s1.039.158,1.039.158a12.457,12.457,0,0,0,1.1,5.614,13.777,13.777,0,0,1,1.324,4.978c.017.23.02.363.02.363S633.482,829.062,628.144,829.4Z" transform="translate(-485.07 -587.21)" fill="#3f3d56"/>
    <path id="Path_524" data-name="Path 524" d="M628.144,856.75c-4.028.253-4.722-2.224-4.6-4.028,0,0,1.045,1.775,4.765,1.35a10.445,10.445,0,0,0,4.345-1.4c.017.23.02.363.02.363S633.482,856.414,628.144,856.75Z" transform="translate(-485.07 -614.562)" opacity="0.1"/>
    <g id="Group_121" data-name="Group 121" transform="translate(143 139.323)" opacity="0.1">
      <path id="Path_525" data-name="Path 525" d="M643.537,513.84c-.826-2.359-1.726-4.316-2.544-4.48l-.728.075c.76.409,1.594,2.227,2.356,4.405a45.647,45.647,0,0,1,2.5,15.032v4.805l-.61,7.631s-.489,17.213-.863,18.128.245,5.248.305,6.166-.429,4.892-.429,4.892-.55,9.95-1.341,10.741,0,3.053,0,3.053a5.466,5.466,0,0,1-2.877,1.062,5.6,5.6,0,0,0,3.8-1.062s-.794-2.259,0-3.053,1.341-10.741,1.341-10.741.489-3.968.429-4.892-.67-5.251-.305-6.166.863-18.128.863-18.128l.61-7.631v-4.805A45.644,45.644,0,0,0,643.537,513.84Z" transform="translate(-639.31 -509.36)"/>
    </g>
    <g id="Group_122" data-name="Group 122" transform="translate(116.297 138.417)" opacity="0.1">
      <path id="Path_526" data-name="Path 526" d="M547.609,582.513s.725-.673.176-3.847.365-11.78.365-11.78a7.153,7.153,0,0,1,.489-3.165c.61-.967-.305-2.877-.063-3.723s.978-5.5.978-5.5-.314-11.42-.314-12.033a7.983,7.983,0,0,0-.863-3.11c-.55-.978,0-8.057,0-8.057s1.28-3.663.863-4.454.288-2.2.288-2.2-.67-1.649,0-1.954.794-1.525.794-1.525l.486-5.922s.184-2.685.734-2.808.305-1.151.863-1.89a13.749,13.749,0,0,0,.952-3.764,3.8,3.8,0,0,1-1.013-.575s-.489,3.6-1.039,4.333-.305,1.77-.863,1.89-.731,2.808-.731,2.808l-.472,5.925s-.124,1.22-.794,1.525,0,1.954,0,1.954-.719,1.4-.288,2.2-.863,4.454-.863,4.454-.55,7.081,0,8.057a7.982,7.982,0,0,1,.863,3.111c0,.613.3,12.025.3,12.025s-.734,4.641-.975,5.5.67,2.745.06,3.723a7.172,7.172,0,0,0-.489,3.165s-.924,8.621-.374,11.786-.176,3.847-.176,3.847a8.409,8.409,0,0,0,4.529.964,8.2,8.2,0,0,1-3.43-.958Z" transform="translate(-546.51 -506.21)"/>
    </g>
    <path id="Path_527" data-name="Path 527" d="M586.906,305.185a22.683,22.683,0,0,1,1.9,2.454,3.361,3.361,0,0,0,2.613,1.462,7.012,7.012,0,0,1,.915-.078,1.97,1.97,0,0,1,.987.432,6.313,6.313,0,0,1,2.129,4.028c.279,1.525.288,3.113.7,4.621a2.3,2.3,0,0,0,.777,1.349,3.348,3.348,0,0,0,1.988.256,3.512,3.512,0,0,1,2.509.829,1.993,1.993,0,0,1,.391,2.463,1.5,1.5,0,0,0-.322.558,1.03,1.03,0,0,0,.288.74l1.882,2.561a2.732,2.732,0,0,1,.728,1.726,1.352,1.352,0,0,1-2.383.774c.2.636-.423,1.295-1.085,1.381a3.484,3.484,0,0,1-1.908-.5l-.049,1.085c-.552.288-1.137-.288-1.577-.737s-1.347-.708-1.557-.121a.76.76,0,0,0,.178.714c.768.958,2.569.714,3.1,1.824a1.5,1.5,0,0,1-.918,1.914,2.514,2.514,0,0,1-2.25-.46c-.641-.46-1.269-1.263-2.106-1.257-1.044,0-1.669,1.209-2.644,1.585a2.7,2.7,0,0,1-2.685-.78c-.716-.673-1.214-1.545-1.876-2.276-1.7-1.879-4.284-2.624-6.69-3.427s-4.952-1.9-6.2-4.106a16.787,16.787,0,0,0-1.093-2.063c-.811-1.059-2.175-1.554-3.064-2.547a3.933,3.933,0,0,1-.6-4.2,14.088,14.088,0,0,1,1.752-2.365,7.953,7.953,0,0,0,1.562-4.667,5.914,5.914,0,0,1,.135-1.888,2.939,2.939,0,0,1,2.132-1.755,8.765,8.765,0,0,1,2.877-.066,26.39,26.39,0,0,0,3.148.288c.7-.032,1.231-.575,1.9-.76A4.653,4.653,0,0,1,586.906,305.185Z" transform="translate(-445.972 -223.766)" fill="#3f3d56"/>
    <g id="Group_123" data-name="Group 123" transform="translate(122.789 87.072)" opacity="0.1">
      <path id="Path_528" data-name="Path 528" d="M658.735,329.692c.288,1.534.288,3.113.7,4.618a2.912,2.912,0,0,0,.458,1.039c-.035-.1-.066-.2-.092-.3-.4-1.508-.423-3.087-.7-4.621a8.22,8.22,0,0,0-.924-2.653A9.118,9.118,0,0,1,658.735,329.692Z" transform="translate(-632.539 -327.77)"/>
      <path id="Path_529" data-name="Path 529" d="M681.444,363.873a1.477,1.477,0,0,0-.325.576,1.024,1.024,0,0,0,.288.737c.026.034.049.069.075.1a.444.444,0,0,1,0-.107,1.506,1.506,0,0,1,.325-.558,1.952,1.952,0,0,0-.176-2.221A1.775,1.775,0,0,1,681.444,363.873Z" transform="translate(-648.878 -352.435)"/>
      <path id="Path_530" data-name="Path 530" d="M610.174,380.876a1.574,1.574,0,0,1-1.019,1.554,2.513,2.513,0,0,1-2.25-.463c-.642-.463-1.269-1.26-2.1-1.255-1.047,0-1.669,1.208-2.647,1.583a2.693,2.693,0,0,1-2.685-.78c-.716-.673-1.214-1.545-1.873-2.273-1.7-1.879-4.284-2.627-6.693-3.43s-4.937-1.89-6.183-4.092c.112.245.227.486.357.719,1.243,2.21,3.787,3.3,6.192,4.106s4.99,1.548,6.693,3.427c.662.731,1.151,1.6,1.873,2.276a2.7,2.7,0,0,0,2.685.78c.978-.377,1.6-1.577,2.647-1.585.834,0,1.439.76,2.106,1.257a2.417,2.417,0,0,0,2.247.46,1.5,1.5,0,0,0,.921-1.914,1.342,1.342,0,0,0-.268-.371Z" transform="translate(-580.217 -359.074)"/>
      <path id="Path_531" data-name="Path 531" d="M669.858,384.87a1.573,1.573,0,0,1,.081.59,1.355,1.355,0,0,1-2.385.777c.2.633-.423,1.292-1.085,1.381a3.46,3.46,0,0,1-1.908-.5c-.017.36-.032.722-.049,1.082-.552.288-1.151-.288-1.574-.734s-1.347-.711-1.56-.121a.763.763,0,0,0,.178.711,1.472,1.472,0,0,0,.158.17.531.531,0,0,1,.029-.15c.213-.575,1.119-.322,1.56.121s1.021,1.027,1.577.737c0-.363.032-.722.046-1.085a3.621,3.621,0,0,0,1.911.5c.662-.075,1.289-.745,1.082-1.381a1.355,1.355,0,0,0,2.385-.774,2.166,2.166,0,0,0-.446-1.324Z" transform="translate(-634.8 -368.44)"/>
      <path id="Path_532" data-name="Path 532" d="M572.468,357.1c-.808-1.059-2.175-1.551-3.062-2.547a3.339,3.339,0,0,1-.337-.443,3.657,3.657,0,0,0,.7,1.177c.886.993,2.253,1.488,3.062,2.547a3.9,3.9,0,0,1,.308.472A6.488,6.488,0,0,0,572.468,357.1Z" transform="translate(-569.07 -346.531)"/>
    </g>
    <path id="Path_533" data-name="Path 533" d="M592.406,362.39s.67,7.447-2.383,9.7,6.532,8.425,6.532,8.425l7.265-1.588s-3.542-3.295-3.542-4.7.61-9.28,1.588-10.195S592.406,362.39,592.406,362.39Z" transform="translate(-460.778 -265.356)" fill="#fbbebe"/>
    <path id="Path_534" data-name="Path 534" d="M548.14,289.832l-1.66,3.628s-2.475,1.468-2.656,1.6-2.152,2.383-2.152,2.383l-4.854,3.113s-.118-.222-.288-.535a14.514,14.514,0,0,0-1.128-1.8c-.411-.458,0-5.309,0-5.309a3.807,3.807,0,0,0,.619-3.067c-.342-1.968-.388-9.706-.388-9.706s-.366-6.5.138-7.875-1.151-5.723-1.151-5.723-4.667-4.638-4.348-5.6,3.893,0,3.893,0a8.054,8.054,0,0,0,2.149.78c.443.026,2.811.037,4.627.04h2.15s1.511,5.263,1.329,5.812c-.037.106-.075.213-.109.317-.147.423-.259.8-.075,1.056a36.037,36.037,0,0,1,.734,4.213l.5,4.213a36.358,36.358,0,0,1,.731,3.755c-.046.46-1.191,1.419-.688,2.288a12.7,12.7,0,0,1,.691,3.525,10.019,10.019,0,0,0,1.672,2.69,1.409,1.409,0,0,0,.262.2Z" transform="translate(-418.635 -192.798)" fill="#2da4e9"/>
    <circle id="Ellipse_129" data-name="Ellipse 129" cx="8.791" cy="8.791" r="8.791" transform="translate(128.437 84.405)" opacity="0.1"/>
    <circle id="Ellipse_130" data-name="Ellipse 130" cx="8.791" cy="8.791" r="8.791" transform="translate(128.437 84.039)" fill="#fbbebe"/>
    <path id="Path_535" data-name="Path 535" d="M584.6,409.569c-.794.863-.975,9.208-.506,9.95s-2.362,2.2-4.011,2.135S573.927,423,573.927,423s-9.038-2.443-10.934-1.22-4.578-2.2-3.784-3.418-.863-2.929-1.1-3.6a5.369,5.369,0,0,1-.1-.863h0c-.222-3.073-.452-12.92-.452-12.92V389.671l8.3-5.861a39.868,39.868,0,0,1,3.853,2.23,18.867,18.867,0,0,1,2.492,1.919c2.262,2.138,7.875,4.4,7.875,4.4s6.166,7.386,6.958,8.12S585.4,408.714,584.6,409.569Z" transform="translate(-438.083 -280.613)" fill="#fff"/>
    <path id="Path_536" data-name="Path 536" d="M557.57,419.36v-9.72s.253,17.7.452,22.64C557.8,429.206,557.57,419.36,557.57,419.36Z" transform="translate(-438.09 -299.01)" opacity="0.1"/>
    <path id="Path_537" data-name="Path 537" d="M559.26,490.86a.967.967,0,0,1,.063.512C559.3,491.458,559.28,491.269,559.26,490.86Z" transform="translate(-439.294 -356.86)" opacity="0.1"/>
    <path id="Path_538" data-name="Path 538" d="M569.779,389.182a7.451,7.451,0,0,0-1.326,1.876c-.458,1.007-10.882.184-10.882.184v-1.571l8.3-5.861a39.838,39.838,0,0,1,3.853,2.23C569.779,387.761,569.779,389.182,569.779,389.182Z" transform="translate(-438.09 -280.613)" opacity="0.1"/>
    <path id="Path_539" data-name="Path 539" d="M559.26,488.31a.97.97,0,0,1,.063.512C559.3,488.911,559.28,488.721,559.26,488.31Z" transform="translate(-439.294 -355.044)" opacity="0.1"/>
    <path id="Path_540" data-name="Path 540" d="M563.67,361.906l-1.66,3.628s-2.475,1.467-2.656,1.6-2.152,2.383-2.152,2.383l-4.854,3.113s-.118-.222-.288-.535a33.8,33.8,0,0,1,3.453-3.908c1.557-1.188-.046-1.326,0-1.557s3.436-1.465,4.351-2.334a38.423,38.423,0,0,1,3.551-2.59A1.4,1.4,0,0,0,563.67,361.906Z" transform="translate(-434.166 -264.872)" opacity="0.1"/>
    <path id="Path_541" data-name="Path 541" d="M520.085,362.39a41.45,41.45,0,0,0-3.813,2.745c-.915.869-4.316,2.106-4.351,2.336s1.557.365,0,1.557-5.355,6.773-6.73,7.194-10.756,4.316-10.756,4.316-3.067,2.877-3.525,2.877,2.791,3.113,2.791,3.113,2.929,2.336,3.251,2.7,8.339,4.7,8.339,4.7,1.375.411,1.511.823,1.968,1.557,1.968,1.557,2.046,2.351,1.847,3.188-.55-23.883-.55-23.883,10.425.823,10.882-.184a7.451,7.451,0,0,1,1.326-1.876s-.029-8.468-.613-9.1S520.1,363.167,520.085,362.39Z" transform="translate(-390.58 -265.356)" fill="#2da4e9"/>
    <path id="Path_542" data-name="Path 542" d="M508.2,415.236s2.745,2.975,4.028,3.479a3.467,3.467,0,0,1,1.784,1.833,10.479,10.479,0,0,0,2.336,1.007,5.785,5.785,0,0,1,2.06,1.373s3.067.863,3.067,1.511,1.237,1.514,1.237,1.514l-.308-17.581s-5.1.639-6.561,2.791S508.2,415.236,508.2,415.236Z" transform="translate(-402.926 -298.106)" opacity="0.1"/>
    <path id="Path_543" data-name="Path 543" d="M529,417.145c.23-.138,6.48-8.189,6.48-8.189l1.151-.236s-2.967,4.443-2.921,4.808S529,417.145,529,417.145Z" transform="translate(-417.741 -298.355)" opacity="0.1"/>
    <path id="Path_544" data-name="Path 544" d="M538.11,423.956s1.649-3.8,2.106-4.443,2.921-4.943,2.921-4.943a2.9,2.9,0,0,1,0,1.1C543.007,416.081,538.11,423.956,538.11,423.956Z" transform="translate(-424.23 -302.522)" opacity="0.1"/>
    <path id="Path_545" data-name="Path 545" d="M568.131,348.7s-3.663,6.684-3.34,7.007S568.131,348.7,568.131,348.7Z" transform="translate(-443.219 -255.605)" opacity="0.1"/>
    <path id="Path_546" data-name="Path 546" d="M574.065,357.93s-3.021,4.417-2.748,4.359A44.123,44.123,0,0,0,574.065,357.93Z" transform="translate(-447.869 -262.179)" opacity="0.1"/>
    <path id="Path_547" data-name="Path 547" d="M542.1,224.4l-5.769.411s0-.187-.02-.509c-.081-1.9-.371-8.546-.526-9.288-.184-.863-.368-2.426-.368-2.426s-3.113-.458-3.067-.961-3.982-5.861-.915-5.755c2.394.072,6.486,2.9,8.169,4.141a1.537,1.537,0,0,1,.613,1.421,6.156,6.156,0,0,0-.052,1.093,15.358,15.358,0,0,1-.061,2.27,3.483,3.483,0,0,0,.259,1.925,36.128,36.128,0,0,1,1.439,5.948C541.982,223.673,542.1,224.4,542.1,224.4Z" transform="translate(-418.655 -153.877)" fill="#fbbebe"/>
    <path id="Path_548" data-name="Path 548" d="M555.962,271.3l-.109.314c-1.252-1.24-9.093-2.031-9.093-2.031-.688-.8-.072-1.151.662-2.129.429-.576,3-1.393,5.061-1.971h2.149S556.143,270.749,555.962,271.3Z" transform="translate(-430.177 -196.331)" opacity="0.1"/>
    <path id="Path_549" data-name="Path 549" d="M557.029,265.954l-5.769.411s0-.187-.02-.509a25.111,25.111,0,0,1,4.647-1.646h.834C556.909,265.223,557.029,265.954,557.029,265.954Z" transform="translate(-433.582 -195.427)" opacity="0.1"/>
    <path id="Path_550" data-name="Path 550" d="M555.962,270.658c-.037.107-.075.213-.109.317-1.252-1.243-9.093-2.034-9.093-2.034-.688-.8-.072-1.151.662-2.126.429-.576,3-1.4,5.061-1.974h2.149S556.143,270.109,555.962,270.658Z" transform="translate(-430.177 -195.875)" fill="#2da4e9"/>
    <path id="Path_551" data-name="Path 551" d="M596.114,442.57s-.642,12.315,0,12.911S596.114,442.57,596.114,442.57Z" transform="translate(-465.341 -322.465)" opacity="0.1"/>
    <path id="Path_552" data-name="Path 552" d="M612.317,460.55s-.23,13.553,0,13.688S612.317,460.55,612.317,460.55Z" transform="translate(-477.011 -335.271)" opacity="0.1"/>
    <path id="Path_553" data-name="Path 553" d="M631,466.12s.863,9.34,1.649,9.706S631,466.12,631,466.12Z" transform="translate(-490.391 -339.239)" opacity="0.1"/>
    <path id="Path_554" data-name="Path 554" d="M643.379,436.462a1.907,1.907,0,0,1-.734-.288c-.777-.5-1.649-5.907-2.791-6.638s-5.266-7.922-5.266-7.922A37.8,37.8,0,0,0,632.345,418c-.642-.739-.319-4.028-.319-4.028a17.941,17.941,0,0,1-2.429-3.617,3.279,3.279,0,0,1-.316-1.177s.245-.722,1.22,0,3.355,3.787,4,4.014a5.739,5.739,0,0,1,2.383,1.787,4.956,4.956,0,0,0,1.419,1.283,17.827,17.827,0,0,1,1.053,3.479c-.046.688.365,5.355.863,5.769s1.326,4.164,1.326,4.164S643.06,434.957,643.379,436.462Z" transform="translate(-489.166 -298.451)" opacity="0.1"/>
    <path id="Path_555" data-name="Path 555" d="M666.05,444.79v-.19a1.794,1.794,0,0,1,.049.414A.949.949,0,0,1,666.05,444.79Z" transform="translate(-515.356 -323.911)" opacity="0.1"/>
    <path id="Path_556" data-name="Path 556" d="M668.676,465.036c-.187.325-.363.622-.512.863-.757-.78-1.609-5.867-2.716-6.575a5.176,5.176,0,0,1-1.007-1.131v-6.043a7.772,7.772,0,0,0,.576-1.211c.135,1.634.446,4.057.8,4.351.5.411,1.326,4.167,1.326,4.167S668.129,462.922,668.676,465.036Z" transform="translate(-514.209 -328.426)" opacity="0.1"/>
    <path id="Path_557" data-name="Path 557" d="M644.019,435.825a1.8,1.8,0,0,1-.734-.288c-.78-.5-1.649-5.9-2.794-6.638s-5.263-7.919-5.263-7.919a37.779,37.779,0,0,0-2.244-3.617c-.642-.74-.319-4.028-.319-4.028a18.033,18.033,0,0,1-2.428-3.617,3.31,3.31,0,0,1-.317-1.18s.242-.719,1.22,0,3.355,3.787,4,4.014a5.73,5.73,0,0,1,2.38,1.79,4.849,4.849,0,0,0,1.419,1.28,17.9,17.9,0,0,1,1.053,3.479c-.046.685.368,5.358.863,5.769s1.326,4.167,1.326,4.167S643.7,434.32,644.019,435.825Z" transform="translate(-489.622 -297.998)" fill="#2da4e9"/>
    <circle id="Ellipse_131" data-name="Ellipse 131" cx="0.619" cy="0.619" r="0.619" transform="translate(144.438 119.489)" fill="#3f3d56"/>
    <circle id="Ellipse_132" data-name="Ellipse 132" cx="0.619" cy="0.619" r="0.619" transform="translate(148.501 125.051)" fill="#3f3d56"/>
    <path id="Path_558" data-name="Path 558" d="M670.642,454.12s-2.978-1.361-2.521-.627S670.642,454.12,670.642,454.12Z" transform="translate(-516.798 -330.09)" opacity="0.1"/>
    <path id="Path_559" data-name="Path 559" d="M670.881,461.88s-3.024-.823-2.383-.342A4.862,4.862,0,0,0,670.881,461.88Z" transform="translate(-517.037 -335.867)" opacity="0.1"/>
    <path id="Path_560" data-name="Path 560" d="M671.21,468.03s-2.06-1.49-1.557-.941A4.845,4.845,0,0,0,671.21,468.03Z" transform="translate(-517.866 -339.842)" opacity="0.1"/>
    <path id="Path_561" data-name="Path 561" d="M679.343,476.14s-2.1,4.132-1.1,4.4S679.343,476.14,679.343,476.14Z" transform="translate(-523.85 -346.375)" opacity="0.1"/>
    <path id="Path_562" data-name="Path 562" d="M569.694,711.77s-4.823,4.578-3.418,4.517S569.694,711.77,569.694,711.77Z" transform="translate(-444.108 -514.205)" opacity="0.1"/>
    <path id="Path_563" data-name="Path 563" d="M555.24,731.927c.245,0,5.128-.489,3.844-.734S555.24,731.927,555.24,731.927Z" transform="translate(-436.431 -528.011)" opacity="0.1"/>
    <path id="Path_564" data-name="Path 564" d="M637.76,709.23s5.179.181,5.067.731S637.76,709.23,637.76,709.23Z" transform="translate(-495.206 -512.396)" opacity="0.1"/>
    <path id="Path_565" data-name="Path 565" d="M634.79,716.44s2.99,2.259,3.663,1.525S634.79,716.44,634.79,716.44Z" transform="translate(-493.091 -517.531)" opacity="0.1"/>
    <path id="Path_566" data-name="Path 566" d="M571.073,597.328a1.523,1.523,0,0,1-.19.463.472.472,0,0,1-.132.138,8.23,8.23,0,0,1-2.443,1.151c-.112-.029-.55-.161-1.03-.288-.561-.164-1.183-.339-1.416-.371s-.368-.4-.4-.766,0-.644.153-.7a.363.363,0,0,0,.13-.19,2.326,2.326,0,0,0,.081-.256l.023-.086c.08-.334.147-.757.193-1.1.026-.187.043-.354.057-.466v-.132h0V594.7l.4-.02h.383a23.7,23.7,0,0,1,3.49.035.982.982,0,0,1,.636.731,3.378,3.378,0,0,1,.144.826A3.683,3.683,0,0,1,571.073,597.328Z" transform="translate(-443.701 -430.772)" fill="#fbbebe"/>
    <path id="Path_567" data-name="Path 567" d="M636.637,602.522a.454.454,0,0,0,0,.06c0,.624-.043,1.1-.043,1.174a30.586,30.586,0,0,1-7.933,1.83c-1.042-.08-.268-.794.314-1.531a2.416,2.416,0,0,0,.46-.78.573.573,0,0,0,0-.314c-.031-.115-.06-.219-.08-.314h0c-.15-.659-.075-.863.08-1.024a1.221,1.221,0,0,0,.21-.394,1.579,1.579,0,0,0,.089-.409,1.237,1.237,0,0,0-.233-.883c-.489-.65,1.833-1,1.833-1h4.411c.432,0,.662.61.777,1.4a.084.084,0,0,0,0,.026c.032.23.058.475.072.725s.026.472.029.7S636.637,602.289,636.637,602.522Z" transform="translate(-488.36 -433.841)" fill="#fbbebe"/>
    <path id="Path_568" data-name="Path 568" d="M579.7,670.38s-4.892,1.151-4.394.863c.187-.118.23-.515.213-.964a6.412,6.412,0,0,0-.058-.665c-.063-.509-.155-.935-.155-.935a12.171,12.171,0,0,1,3.479-.305,1.09,1.09,0,0,1,.688.737,1.051,1.051,0,0,1,.037.1A4.188,4.188,0,0,1,579.7,670.38Z" transform="translate(-450.695 -483.252)" fill="#fbbebe"/>
    <path id="Path_569" data-name="Path 569" d="M593,321.139a21.144,21.144,0,0,0,1.9-.929,2.618,2.618,0,0,1,2.049-.2,3.269,3.269,0,0,1,.9.63c.575.509,1.151,1.019,1.692,1.562a9.935,9.935,0,0,0,1.764,1.574c1.511.924,3.43.716,5.179.44a3.192,3.192,0,0,0,1.021-.288,2.121,2.121,0,0,0,.883-2.288,5.126,5.126,0,0,0-1.315-2.242,18.415,18.415,0,0,0-6.005-4.443c-2.423-1.114-5.306-1.669-7.723-.55a8.374,8.374,0,0,0-2.014,1.375c-.84.748-3.013,2.65-2.532,3.936C589.33,321.164,591.747,321.559,593,321.139Z" transform="translate(-460.285 -230.743)" opacity="0.1"/>
    <path id="Path_570" data-name="Path 570" d="M593,320.5a20.372,20.372,0,0,0,1.9-.929,2.63,2.63,0,0,1,2.049-.2,3.4,3.4,0,0,1,.9.63c.575.509,1.151,1.019,1.692,1.563a9.827,9.827,0,0,0,1.764,1.574c1.511.924,3.43.716,5.179.44a3.116,3.116,0,0,0,1.021-.288A2.119,2.119,0,0,0,608.39,321a5.126,5.126,0,0,0-1.315-2.242,18.37,18.37,0,0,0-6.005-4.44c-2.423-1.114-5.306-1.669-7.723-.553a8.461,8.461,0,0,0-2.014,1.375c-.84.748-3.013,2.653-2.532,3.939C589.33,320.533,591.747,320.927,593,320.5Z" transform="translate(-460.285 -230.292)" fill="#3f3d56"/>
    <path id="Path_571" data-name="Path 571" d="M607.485,336.074a3.086,3.086,0,0,1-1.019.288c-1.749.288-3.666.481-5.179-.44a9.942,9.942,0,0,1-1.772-1.588c-.541-.547-1.119-1.053-1.692-1.562a3.341,3.341,0,0,0-.9-.633,2.625,2.625,0,0,0-2.052.2,20.369,20.369,0,0,1-1.9.929c-1.252.42-3.669.026-4.21-1.416a1.087,1.087,0,0,1-.055-.216,1.194,1.194,0,0,0,.055.576c.541,1.439,2.958,1.836,4.21,1.416a20.749,20.749,0,0,0,1.9-.929,2.623,2.623,0,0,1,2.052-.2,3.266,3.266,0,0,1,.9.63c.576.509,1.151,1.019,1.692,1.562a9.941,9.941,0,0,0,1.764,1.574c1.511.924,3.427.716,5.179.44a3.165,3.165,0,0,0,1.019-.288,2.045,2.045,0,0,0,.929-1.974A1.934,1.934,0,0,1,607.485,336.074Z" transform="translate(-460.258 -243.454)" opacity="0.1"/>
    <path id="Path_572" data-name="Path 572" d="M567.069,595.45a11.908,11.908,0,0,1-.319,1.637,13.655,13.655,0,0,0,.288-1.657Z" transform="translate(-444.629 -431.341)" opacity="0.1"/>
    <path id="Path_573" data-name="Path 573" d="M570.754,597.941a8.226,8.226,0,0,1-2.443,1.151c-.245-.069-2.014-.61-2.446-.67s-.544-1.344-.25-1.465a.362.362,0,0,0,.13-.19,2.474,2.474,0,0,1-.1.256,1.274,1.274,0,0,0,.288,1.344l2.538.656,2.391-1.306c.575-.791-.069-2.616-.4-2.912s-4.25,0-4.25,0l-.086-.084h0V594.7l.4-.02h.383a23.722,23.722,0,0,1,3.49.035C571.364,594.888,571.364,597.515,570.754,597.941Z" transform="translate(-443.704 -430.773)" opacity="0.1"/>
    <path id="Path_574" data-name="Path 574" d="M635.747,598.92h-4.411s-2.322.348-1.833,1a1.475,1.475,0,0,1-.066,1.686c-.176.184-.25.429,0,1.344s-2.371,2.5-.786,2.624a30.7,30.7,0,0,0,7.933-1.83C636.584,603.5,636.926,598.92,635.747,598.92Zm.6,4.736a28.9,28.9,0,0,1-7.481,1.726c-1.5-.112.975-1.609.74-2.472s-.167-1.093,0-1.266a1.392,1.392,0,0,0,.063-1.591c-.46-.613,1.726-.941,1.726-.941h4.158C636.665,599.11,636.342,603.426,636.342,603.656Z" transform="translate(-488.353 -433.826)" opacity="0.1"/>
    <path id="Path_575" data-name="Path 575" d="M578.783,668.345a12.168,12.168,0,0,0-3.479.3s.489,2.259,0,2.564,4.4-.863,4.4-.863S579.7,668.589,578.783,668.345Zm-3.4,2.82c.472-.288,0-2.478,0-2.478a11.621,11.621,0,0,1,3.361-.288c.883.242.883,1.945.883,1.945S574.9,671.458,575.38,671.165Z" transform="translate(-450.697 -483.23)" opacity="0.1"/>
    <path id="Path_576" data-name="Path 576" d="M639.641,607.106l-7.271.863h0l7.243-1.56C639.627,606.637,639.638,606.867,639.641,607.106Z" transform="translate(-491.367 -439.161)" opacity="0.1"/>
    <path id="Path_577" data-name="Path 577" d="M489.81,581.6l7.553-1.626.161.708Z" transform="translate(-348.873 -412.96)" fill="#3f3d56"/>
    <path id="Path_578" data-name="Path 578" d="M638.668,611.39a.454.454,0,0,0,0,.06L631,612.924a2.415,2.415,0,0,0,.46-.78Z" transform="translate(-490.391 -442.708)" opacity="0.1"/>
    <path id="Path_579" data-name="Path 579" d="M485.81,585.847l9.208-.967-8.963,1.724Z" transform="translate(-346.024 -416.457)" fill="#3f3d56"/>
    <path id="Path_580" data-name="Path 580" d="M640.257,603.78l-6.788.483a1.577,1.577,0,0,1-.089.409l6.88-.863Z" transform="translate(-492.087 -437.288)" opacity="0.1"/>
    <path id="Path_581" data-name="Path 581" d="M489.525,577.969l7.714-.55-7.829.984Z" transform="translate(-348.589 -411.144)" fill="#3f3d56"/>
    <path id="Path_582" data-name="Path 582" d="M572.15,597.982l-5.32.173c.081-.334.147-.757.193-1.1l4.984.106A3.365,3.365,0,0,1,572.15,597.982Z" transform="translate(-444.686 -432.495)" opacity="0.1"/>
    <path id="Path_583" data-name="Path 583" d="M423.12,570.76l7.257.152-.886.774-6.371.2Z" transform="translate(-301.373 -406.4)" fill="#3f3d56"/>
    <path id="Path_584" data-name="Path 584" d="M571.1,604a1.519,1.519,0,0,1-.19.463l-3.605,1c-.561-.164-1.183-.34-1.416-.371s-.368-.4-.4-.765Z" transform="translate(-443.731 -437.445)" opacity="0.1"/>
    <path id="Path_585" data-name="Path 585" d="M419.81,577.912l8.454-.492-7.752,2.147Z" transform="translate(-299.015 -411.144)" fill="#3f3d56"/>
    <path id="Path_586" data-name="Path 586" d="M579.979,671.161l-3.991,1.068a6.415,6.415,0,0,0-.058-.665c1.114-.15,2.97-.377,4.011-.5A1.047,1.047,0,0,1,579.979,671.161Z" transform="translate(-451.167 -485.209)" opacity="0.1"/>
    <path id="Path_587" data-name="Path 587" d="M572.74,670.821c.153-.06,5.709-.731,5.709-.731l-5.709,1.525Z" transform="translate(-448.895 -484.518)" fill="#3f3d56"/>
    <circle id="Ellipse_133" data-name="Ellipse 133" cx="6.224" cy="6.224" r="6.224" transform="translate(207.868 21.329)" fill="#2da4e9"/>
    <circle id="Ellipse_134" data-name="Ellipse 134" cx="4.894" cy="4.894" r="4.894" transform="translate(236.824 37.906)" fill="#2da4e9"/>
    <circle id="Ellipse_135" data-name="Ellipse 135" cx="6.224" cy="6.224" r="6.224" transform="translate(207.868 21.329)" opacity="0.4"/>
    <circle id="Ellipse_136" data-name="Ellipse 136" cx="4.894" cy="4.894" r="4.894" transform="translate(236.824 37.906)" opacity="0.4"/>
    <circle id="Ellipse_137" data-name="Ellipse 137" cx="15.708" cy="15.708" r="15.708" transform="translate(22.157 27.092)" fill="#2da4e9"/>
    <circle id="Ellipse_138" data-name="Ellipse 138" cx="15.708" cy="15.708" r="15.708" transform="translate(22.157 27.092)" opacity="0.4"/>
    <circle id="Ellipse_139" data-name="Ellipse 139" cx="1.726" cy="1.726" r="1.726" transform="translate(238.547 19.217)" fill="#2da4e9"/>
    <circle id="Ellipse_140" data-name="Ellipse 140" cx="1.726" cy="1.726" r="1.726" transform="translate(238.547 19.217)" opacity="0.4"/>
    <path id="Path_588" data-name="Path 588" d="M448.818,788s1.79,2.339-.826,5.873-4.771,6.514-3.9,8.719c0,0,3.945-6.561,7.156-6.652S452.342,791.948,448.818,788Z" transform="translate(-357.125 -568.5)" fill="#2da4e9"/>
    <path id="Path_589" data-name="Path 589" d="M449.07,788a2.883,2.883,0,0,1,.365.734c3.133,3.683,4.8,7.119,1.793,7.194-2.805.078-6.172,5.1-6.978,6.362a2.633,2.633,0,0,0,.095.288s3.945-6.561,7.156-6.653S452.595,791.948,449.07,788Z" transform="translate(-357.377 -568.5)" opacity="0.1"/>
    <path id="Path_590" data-name="Path 590" d="M471.511,797.071c0,.823-.092,1.491-.207,1.491s-.2-.668-.2-1.491.115-.437.227-.437S471.511,796.245,471.511,797.071Z" transform="translate(-376.501 -574.585)" fill="#ffd037"/>
    <path id="Path_591" data-name="Path 591" d="M473.008,800.394c-.722.394-1.355.633-1.407.532s.486-.5,1.208-.895.437-.106.492,0S473.728,800,473.008,800.394Z" transform="translate(-376.856 -576.926)" fill="#ffd037"/>
    <path id="Path_592" data-name="Path 592" d="M418.191,788s-1.79,2.339.826,5.873,4.771,6.514,3.9,8.719c0,0-3.945-6.561-7.156-6.652S414.657,791.948,418.191,788Z" transform="translate(-335.957 -568.5)" fill="#2da4e9"/>
    <path id="Path_593" data-name="Path 593" d="M418.191,788a2.879,2.879,0,0,0-.365.734c-3.133,3.683-4.8,7.119-1.793,7.194,2.805.078,6.172,5.1,6.978,6.362a2.633,2.633,0,0,1-.095.288s-3.945-6.561-7.156-6.653S414.657,791.948,418.191,788Z" transform="translate(-335.957 -568.5)" opacity="0.1"/>
    <path id="Path_594" data-name="Path 594" d="M416.57,797.071c0,.823.092,1.491.207,1.491s.2-.668.2-1.491-.115-.437-.227-.437S416.57,796.245,416.57,797.071Z" transform="translate(-337.662 -574.585)" fill="#ffd037"/>
    <path id="Path_595" data-name="Path 595" d="M411.514,800.394c.722.394,1.352.633,1.407.532s-.486-.5-1.208-.895-.437-.106-.492,0S410.791,800,411.514,800.394Z" transform="translate(-333.748 -576.926)" fill="#ffd037"/>
    <path id="Path_596" data-name="Path 596" d="M418.55,830.957s5-.152,6.509-1.229,7.7-2.354,8.071-.633,7.516,8.563,1.867,8.609-13.121-.88-14.626-1.8S418.55,830.957,418.55,830.957Z" transform="translate(-339.072 -597.171)" fill="#a8a8a8"/>
    <path id="Path_597" data-name="Path 597" d="M435.1,843.765c-5.646.046-13.121-.88-14.626-1.8-1.151-.7-1.6-3.205-1.755-4.359h-.167s.317,4.028,1.821,4.952,8.98,1.842,14.626,1.8c1.632,0,2.2-.593,2.164-1.453C436.934,843.437,436.312,843.765,435.1,843.765Z" transform="translate(-339.072 -603.835)" opacity="0.2"/>
    <path id="Path_598" data-name="Path 598" d="M811.424,764.406s-3.2-10.857.6-18.847a17.147,17.147,0,0,0,1.387-10.759,28.879,28.879,0,0,0-1.522-5.05" transform="translate(-618.003 -527.011)" fill="none" stroke="#535461" stroke-miterlimit="10" stroke-width="2"/>
    <path id="Path_599" data-name="Path 599" d="M812.43,706.437c0,1.332-2.408,5.179-2.408,5.179s-2.411-3.859-2.411-5.179a2.411,2.411,0,0,1,4.82,0Z" transform="translate(-616.183 -508.748)" fill="#2da4e9"/>
    <path id="Path_600" data-name="Path 600" d="M826.213,728.614c-.722,1.116-4.843,3.044-4.843,3.044s.075-4.546.8-5.663a2.41,2.41,0,1,1,4.046,2.619Z" transform="translate(-625.984 -523.553)" fill="#2da4e9"/>
    <path id="Path_601" data-name="Path 601" d="M823.438,770.3c-1.186.6-5.718.184-5.718.184s2.362-3.887,3.548-4.489a2.415,2.415,0,1,1,2.17,4.316Z" transform="translate(-623.384 -552.641)" fill="#2da4e9"/>
    <path id="Path_602" data-name="Path 602" d="M815.805,803.842c-1.07.791-5.605,1.151-5.605,1.151s1.669-4.23,2.739-5.021a2.412,2.412,0,0,1,2.877,3.873Z" transform="translate(-618.028 -576.688)" fill="#2da4e9"/>
    <path id="Path_603" data-name="Path 603" d="M801.984,739.058c.955.927,5.4,1.888,5.4,1.888s-1.091-4.417-2.043-5.343a2.408,2.408,0,0,0-3.358,3.453Z" transform="translate(-611.657 -530.694)" fill="#2da4e9"/>
    <path id="Path_604" data-name="Path 604" d="M791.873,776.782c1.188.6,5.717.184,5.717.184s-2.359-3.887-3.548-4.489a2.411,2.411,0,0,0-2.169,4.3Z" transform="translate(-604.075 -557.282)" fill="#2da4e9"/>
    <path id="Path_605" data-name="Path 605" d="M789.221,816.075c1.068.791,5.6,1.151,5.6,1.151s-1.669-4.233-2.739-5.024a2.414,2.414,0,0,0-2.877,3.876Z" transform="translate(-602.381 -585.4)" fill="#2da4e9"/>
    <path id="Path_606" data-name="Path 606" d="M812.43,706.437c0,1.332-2.408,5.179-2.408,5.179s-2.411-3.859-2.411-5.179a2.411,2.411,0,0,1,4.82,0Z" transform="translate(-616.183 -508.748)" fill="#2da4e9"/>
    <path id="Path_607" data-name="Path 607" d="M826.213,728.614c-.722,1.116-4.843,3.044-4.843,3.044s.075-4.546.8-5.663a2.41,2.41,0,1,1,4.046,2.619Z" transform="translate(-625.984 -523.553)" fill="#2da4e9"/>
    <path id="Path_608" data-name="Path 608" d="M823.438,770.3c-1.186.6-5.718.184-5.718.184s2.362-3.887,3.548-4.489a2.415,2.415,0,1,1,2.17,4.316Z" transform="translate(-623.384 -552.641)" fill="#2da4e9"/>
    <path id="Path_609" data-name="Path 609" d="M815.805,803.842c-1.07.791-5.605,1.151-5.605,1.151s1.669-4.23,2.739-5.021a2.412,2.412,0,0,1,2.877,3.873Z" transform="translate(-618.028 -576.688)" fill="#2da4e9"/>
    <path id="Path_610" data-name="Path 610" d="M801.984,739.058c.955.927,5.4,1.888,5.4,1.888s-1.091-4.417-2.043-5.343a2.408,2.408,0,0,0-3.358,3.453Z" transform="translate(-611.657 -530.694)" fill="#2da4e9"/>
    <path id="Path_611" data-name="Path 611" d="M791.873,776.782c1.188.6,5.717.184,5.717.184s-2.359-3.887-3.548-4.489a2.411,2.411,0,0,0-2.169,4.3Z" transform="translate(-604.075 -557.282)" fill="#2da4e9"/>
    <path id="Path_612" data-name="Path 612" d="M789.221,816.075c1.068.791,5.6,1.151,5.6,1.151s-1.669-4.233-2.739-5.024a2.414,2.414,0,0,0-2.877,3.876Z" transform="translate(-602.381 -585.4)" fill="#2da4e9"/>
    <path id="Path_613" data-name="Path 613" d="M788.27,838.412s3.9-.774,4.932-1.8,5.712-2.834,6.232-1.545,7.006,5.668,2.59,6.443-10.385,1.03-11.682.515S788.27,838.412,788.27,838.412Z" transform="translate(-602.408 -601.702)" fill="#a8a8a8"/>
    <path id="Path_614" data-name="Path 614" d="M802.03,850.337c-4.414.774-10.385,1.033-11.682.518-.987-.394-1.675-2.279-1.948-3.165l-.13.026s.78,3.093,2.078,3.608,7.268.259,11.682-.515c1.272-.224,1.637-.748,1.5-1.41C803.42,849.839,802.977,850.173,802.03,850.337Z" transform="translate(-602.408 -611.015)" opacity="0.2"/>
    <path id="Path_615" data-name="Path 615" d="M257.929,95.7v.1a.327.327,0,0,0,0,.055v.308a.038.038,0,0,1,0,.017v.187l-.026.2a.672.672,0,0,1-.023.132h0a.52.52,0,0,0,0,.066v.04a.149.149,0,0,1,0,.035.12.12,0,0,1-.014.069c-.014.023,0,.046-.014.069s0,.035,0,.052a.883.883,0,0,1-.02.089h0a.456.456,0,0,1-.014.06.691.691,0,0,1-.02.075.338.338,0,0,1-.023.089.069.069,0,0,0,0,.023.285.285,0,0,1-.029.092c-.026.092-.058.187-.089.288,0,.029-.023.058-.032.086a.311.311,0,0,1-.02.049,6.258,6.258,0,0,1-.84,1.537l-.066.086a6.384,6.384,0,0,1-.541.616l-9.067,8.989-8.978-8.978a6.4,6.4,0,0,1-.7-.837,6.184,6.184,0,0,1-.365-.575,6.362,6.362,0,0,1-.768-3.608,2.355,2.355,0,0,1,.04-.345q.043-.288.112-.6a.422.422,0,0,1,.032-.118l.017-.063v-.035l.026-.092h0c.02-.069.043-.138.066-.207s.02-.063.032-.095c.046-.135.1-.268.155-.4l.035-.078.052-.118.092-.19h0c0-.029.029-.058.046-.086a.774.774,0,0,1,.052-.095c.02-.04.043-.078.066-.118a.585.585,0,0,0,.032-.058.117.117,0,0,0,.02-.032h0l.043-.069c.017-.026.032-.052.049-.075l.115-.173.04-.058.052-.072.055-.075.069-.089.06-.075.023-.029.043-.052a1,1,0,0,1,.072-.083.419.419,0,0,1,.029-.037h0l.052-.06.063-.066c.055-.06.112-.121.173-.178l.069-.069.106-.1.072-.066.086-.075.055-.049.058-.046.112-.092.058-.046c.1-.075.2-.147.288-.213l.058-.04.06-.04.058-.037.083-.052.043-.026.06-.037c.083-.046.167-.095.25-.138l.049-.026.078-.04.063-.029.066-.032.063-.032.063-.029.066-.029c.086-.037.176-.072.262-.1l.066-.026.069-.026.063-.02.052-.017.121-.04.1-.066.049-.014h.049l.089-.026.115-.029c.118-.029.239-.055.36-.078h.328c.115,0,.23-.026.348-.035h.964c.095,0,.187.017.288.026l.127.017h.268c.121.023.239.049.357.078l.147.037h.04l.063.017.121.035.052.017.262.089.058.023.078.029.121.049.132.058.052.023.075.035.063.032.063.029.081.043.063.032.147.081.06.035.213.129.058.037.06.04.058.04h0l.04.026.25.184.058.046.112.092.058.046.055.049.086.075.072.066.106.1.069.069.072-.069c.035-.035.069-.069.106-.1a.787.787,0,0,1,.072-.066l.083-.075.058-.049.055-.046.115-.092.058-.046c.1-.075.2-.147.288-.213l.06-.04.06-.04.058-.037.083-.052.043-.026.06-.037c.083-.046.167-.095.25-.138l.049-.026.078-.04.063-.029.063-.032.066-.032.063-.029.066-.029c.086-.037.173-.072.262-.1l.063-.026.072-.026.063-.02.052-.017.121-.04.06-.017.052-.014h.049l.086-.026.115-.029q.181-.043.363-.078h.325c.115,0,.233-.026.348-.035h.964l.288.026.124.017h.27c.118.023.239.049.357.078l.147.037h.04l.063.017.121.035.052.017.262.089.058.023.078.029.118.049.135.058.052.023.072.035.063.032.066.029.078.043.063.032.147.081.063.035.213.129.055.037.06.04.063.046h0l.037.026c.086.06.17.121.25.184a.446.446,0,0,1,.058.046c.04.029.078.06.115.092l.058.046.055.049.075.063.072.066.04.04h0l.069.066.032.032.037.037.069.069.107.112a.633.633,0,0,1,.058.066c.034.035.066.072.1.109l.1.124a5.15,5.15,0,0,1,.331.449.43.43,0,0,1,.06.049.534.534,0,0,1,.046.066l.037.06.063.1.055.095.032.058.026.046.026.046.037.069.035.069c.083.161.158.328.227.495l.029.072c.026.069.052.138.075.207a.593.593,0,0,1,.023.063.324.324,0,0,0,.029.089l.026.081.017.052a.3.3,0,0,0,.02.072l.026.092c.014.049.026.1.037.15s.014.052.02.078.014.072.023.109a.284.284,0,0,0,0,.049v.832h0a.394.394,0,0,1,0,.058.394.394,0,0,1,0,.058V95.4h0v.1Z" transform="translate(-209.229 -70.895)" fill="#ff6584"/>
    <path id="Path_616" data-name="Path 616" d="M258.377,95.7v.1a.334.334,0,0,0,0,.055c0,.046,0,.089,0,.135v.173a.037.037,0,0,1,0,.017v.187l-.026.2a.672.672,0,0,1-.023.132h0a.544.544,0,0,0,0,.066v.04a.142.142,0,0,1,0,.035.121.121,0,0,1-.014.069c-.014.023,0,.046-.014.069s0,.035,0,.052a.886.886,0,0,1-.02.089h0a.446.446,0,0,1-.014.06.72.72,0,0,1-.02.075.341.341,0,0,1-.023.089.069.069,0,0,0,0,.023.285.285,0,0,1-.029.092c-.026.092-.058.187-.089.288,0,.029-.023.058-.032.086a.315.315,0,0,1-.02.049,6.33,6.33,0,0,0-1.683-5.976,6.436,6.436,0,0,0-1.085-.863c-.115-.072-.23-.141-.348-.2a6.33,6.33,0,0,0-6.8.377,6.1,6.1,0,0,0-.829.7,6.957,6.957,0,0,0-.777-.662h0a6.594,6.594,0,0,0-.656-.414,6.356,6.356,0,0,0-6.115,0,6.573,6.573,0,0,0-.9.6,6.436,6.436,0,0,0-1.226,1.3c-.127.178-.245.363-.351.55h0a5.969,5.969,0,0,0-.27.544c-.046.1-.089.2-.129.308a.423.423,0,0,1,.032-.118l.017-.063v-.035l.026-.092h0c.02-.069.043-.138.066-.207s.02-.063.032-.095c.046-.135.1-.268.155-.4l.035-.078.052-.118.092-.19h0c0-.029.029-.058.046-.086a.77.77,0,0,1,.052-.095c.02-.04.043-.078.066-.118a.575.575,0,0,0,.032-.058.118.118,0,0,0,.02-.032h0l.043-.069c.017-.026.032-.052.049-.075l.115-.173.04-.058.052-.072.055-.075.069-.089.06-.075.023-.029.043-.052a1,1,0,0,1,.072-.083.425.425,0,0,1,.029-.037h0l.052-.06.063-.066c.055-.06.112-.121.173-.178l.069-.069.106-.1.072-.066.086-.075.055-.049.058-.046.112-.092.058-.046c.1-.075.2-.147.288-.213l.058-.04.06-.04.058-.037.083-.052.043-.026.06-.037c.083-.046.167-.095.25-.138l.049-.026.078-.04.063-.029.066-.032.063-.032.063-.029.066-.029c.086-.037.176-.072.262-.1l.066-.026.069-.026.063-.02.052-.017.121-.04.092-.046.049-.014h.049l.089-.026.115-.029c.118-.029.239-.055.36-.078h.328c.115,0,.23-.026.348-.035h.964c.095,0,.187.017.288.026l.127.017h.268c.121.023.239.049.357.078l.147.037h.04l.063.017.121.035.052.017.262.089.058.023.078.029.121.049.132.058.052.023.075.035.063.032.063.029.081.043.063.032.147.081.06.035.213.129.058.037.06.04.058.04h0l.04.026.25.184.058.046.112.092.058.046.055.049.086.075.072.066.106.1.069.069.072-.069c.035-.035.069-.069.106-.1a.791.791,0,0,1,.072-.066l.083-.075.058-.049.055-.046.115-.092.058-.046c.1-.075.2-.147.288-.213l.06-.04.06-.04.058-.037.083-.052.043-.026.06-.037c.083-.046.167-.095.25-.138l.049-.026.078-.04.063-.029.063-.032.066-.032.063-.029.066-.029c.086-.037.173-.072.262-.1l.063-.026.072-.026.063-.02.052-.017.121-.04.06-.017.052-.014h.049l.086-.026.115-.029q.181-.043.363-.078h.325c.115,0,.233-.026.348-.035h.964l.288.026.124.017h.27c.118.023.239.049.357.078l.147.037h.04l.063.017.121.035.052.017.262.089.058.023.078.029.118.049.135.058.052.023.072.035.063.032.066.029.078.043.063.032.147.081.063.035.213.129.055.037.06.04.063.046h0l.037.026c.086.06.17.121.25.184a.449.449,0,0,1,.058.046c.04.029.078.06.115.092l.058.046.055.049.075.063.072.066.04.04h0l.069.066.032.032.037.037.069.069.106.112a.619.619,0,0,1,.058.066c.035.035.066.072.1.109l.1.124a5.151,5.151,0,0,1,.331.449.434.434,0,0,1,.06.049.541.541,0,0,1,.046.066l.037.06.063.1.055.095.032.058.026.046.026.046.037.069.035.069c.083.161.158.328.227.495l.029.072c.026.069.052.138.075.207a.568.568,0,0,1,.023.063.325.325,0,0,0,.029.089l.026.081.017.052a.3.3,0,0,0,.02.072l.026.092c.014.049.026.1.037.15s.014.052.02.078.014.072.023.109a.3.3,0,0,0,0,.049v.832h0a27.138,27.138,0,0,1,0,.115V95.4h0v.1Z" transform="translate(-209.676 -70.895)" opacity="0.1"/>
  </g>
</svg>
