<svg xmlns="http://www.w3.org/2000/svg" width="209.002" height="50.007" viewBox="0 0 209.002 50.007">
  <g id="Horizontal-Logo-inverse" transform="translate(-164.998 -444)">
    <text id="GigaMare" transform="translate(223 481)" fill="#fff" font-size="36" font-family="Corbel-Bold, Corbel" font-weight="700"><tspan x="0" y="0">GigaMare</tspan></text>
    <g id="GMI_logo" data-name="GMI logo" transform="translate(164.959 444)">
      <path id="Path_16" data-name="Path 16" d="M767.911,60.916a44.366,44.366,0,0,1,6.745-3.14,6.455,6.455,0,0,1-1.279-10.292,6.92,6.92,0,0,1,11.048,3.111s6.193.93,6.077,9.536c0,0,5.815-12.56-8.46-19.363a121.364,121.364,0,0,0-18.607-3.518s-.32,10.118,0,15.758a13.9,13.9,0,0,0,4.478,7.908Z" transform="translate(-763.19 -37.25)" fill="#fff"/>
      <path id="Path_17" data-name="Path 17" d="M772.15,41.114a31.51,31.51,0,0,1,3.343,5.379,5.815,5.815,0,0,1,9.042.727,6.658,6.658,0,0,1-2.617,8.489s0,4.332-7.385,5.815c0,0,10.409,3.605,14.3-6.6a19.071,19.071,0,0,0,.785-4.332l.175-10.583-7.356-.814a19.887,19.887,0,0,0-5.5,0,10.584,10.584,0,0,0-4.8,1.919Z" transform="translate(-746.292 -33.904)" fill="#fff"/>
      <path id="Path_18" data-name="Path 18" d="M785.8,49.067l4.448-2.907a13.025,13.025,0,0,1,2.675,5.815l.2,12.415s-8.9.93-11.63.93a12.473,12.473,0,0,1-8.722-4.972,11.627,11.627,0,0,1-2.122-4.623,13.081,13.081,0,0,1,1.657-8.548s-2.239,8.17,5.815,9.275a5.32,5.32,0,0,0,8.083,2.151,6.047,6.047,0,0,0-.407-9.536Z" transform="translate(-749.419 -20.255)" fill="#fff"/>
      <path id="Path_19" data-name="Path 19" d="M775.655,52.172s.582-7.007,9.507-6.571a15.642,15.642,0,0,0-15.583,2.558,14.043,14.043,0,0,0-5.815,9.333l-.494,15.816,14.392-2.442s6.89-.989,9.216-4.681c0,0-2.006-2.907-3.14-5.03a6.629,6.629,0,0,1-10.379,1.773C770.713,60.371,770.422,55.428,775.655,52.172Z" transform="translate(-763.23 -23.302)" fill="#fff"/>
      <path id="Path_20" data-name="Path 20" d="M776.256,45.538a4.738,4.738,0,1,1-1.377-3.37,4.768,4.768,0,0,1,1.377,3.37Z" transform="translate(-756.65 -30.536)" fill="#fff"/>
      <path id="Path_21" data-name="Path 21" d="M780.879,45.105a3.634,3.634,0,1,1-3.605-3.605,3.634,3.634,0,0,1,3.605,3.605Z" transform="translate(-743.508 -29.144)" fill="#fff"/>
      <circle id="Ellipse_9" data-name="Ellipse 9" cx="4.565" cy="4.565" r="4.565" transform="translate(10.187 30.615)" fill="#fff"/>
      <path id="Path_22" data-name="Path 22" d="M781.069,51.39a3.751,3.751,0,1,1-1.088-2.671A3.78,3.78,0,0,1,781.069,51.39Z" transform="translate(-743.699 -17.49)" fill="#fff"/>
    </g>
  </g>
</svg>
