<svg xmlns="http://www.w3.org/2000/svg" width="208.002" height="50.858" viewBox="0 0 208.002 50.858">
  <g id="Horizontal-Logo" transform="translate(-139.998 -456.342)">
    <g id="GMI_logo" data-name="GMI logo" transform="translate(139.959 456.342)">
      <path id="Path_30" data-name="Path 30" d="M767.989,61.319a45.114,45.114,0,0,1,6.86-3.193,6.564,6.564,0,0,1-1.3-10.467,7.037,7.037,0,0,1,11.236,3.164s6.3.946,6.18,9.7c0,0,5.914-12.774-8.6-19.693a123.425,123.425,0,0,0-18.924-3.578s-.325,10.29,0,16.026a14.134,14.134,0,0,0,4.553,8.043Z" transform="translate(-763.189 -37.25)" fill="#010101"/>
      <path id="Path_31" data-name="Path 31" d="M772.15,41.15a32.049,32.049,0,0,1,3.4,5.47,5.914,5.914,0,0,1,9.2.739,6.771,6.771,0,0,1-2.661,8.634s0,4.406-7.51,5.914c0,0,10.586,3.666,14.548-6.712a19.413,19.413,0,0,0,.8-4.406l.177-10.763-7.481-.828a20.224,20.224,0,0,0-5.588,0,10.763,10.763,0,0,0-4.879,1.952Z" transform="translate(-745.853 -33.817)" fill="#2691d0"/>
      <path id="Path_32" data-name="Path 32" d="M786.061,49.117l4.524-2.957a13.248,13.248,0,0,1,2.72,5.914l.207,12.626s-9.048.946-11.827.946a12.685,12.685,0,0,1-8.871-5.056,11.827,11.827,0,0,1-2.158-4.7,13.3,13.3,0,0,1,1.686-8.693s-2.277,8.309,5.914,9.432a5.411,5.411,0,0,0,8.22,2.188,6.15,6.15,0,0,0-.414-9.7Z" transform="translate(-749.061 -19.814)" fill="#010101"/>
      <path id="Path_33" data-name="Path 33" d="M775.866,52.3s.591-7.126,9.669-6.682a15.908,15.908,0,0,0-15.849,2.6,14.281,14.281,0,0,0-5.914,9.492l-.5,16.085,14.636-2.484s7.008-1.005,9.373-4.761c0,0-2.04-2.957-3.194-5.115a6.741,6.741,0,0,1-10.556,1.8C770.84,60.64,770.544,55.613,775.866,52.3Z" transform="translate(-763.23 -22.94)" fill="#2691d0"/>
      <path id="Path_34" data-name="Path 34" d="M776.419,45.619a4.819,4.819,0,1,1-1.4-3.427,4.849,4.849,0,0,1,1.4,3.427Z" transform="translate(-756.479 -30.362)" fill="#010101"/>
      <path id="Path_35" data-name="Path 35" d="M781,45.167a3.7,3.7,0,1,1-3.667-3.667A3.7,3.7,0,0,1,781,45.167Z" transform="translate(-742.997 -28.933)" fill="#2691d0"/>
      <circle id="Ellipse_11" data-name="Ellipse 11" cx="4.642" cy="4.642" r="4.642" transform="translate(10.359 31.136)" fill="#2691d0"/>
      <path id="Path_36" data-name="Path 36" d="M781.2,51.454a3.814,3.814,0,1,1-1.107-2.716A3.844,3.844,0,0,1,781.2,51.454Z" transform="translate(-743.192 -16.977)" fill="#080808"/>
    </g>
    <text id="GigaMare" transform="translate(197 494)" fill="#010101" font-size="36" font-family="Corbel-Bold, Corbel" font-weight="700"><tspan x="0" y="0">GigaMare</tspan></text>
  </g>
</svg>
